  0
SECTION
  2
HEADER
  9
$ACADVER
  1
AC1032
  9
$ACADMAINTVER
 90
4
  9
$DWGCODEPAGE
  3
ANSI_1252
  9
$LASTSAVEDBY
  1
ezdxf
  9
$REQUIREDVERSIONS
160
0
  9
$INSBASE
 10
0.0
 20
0.0
 30
0.0
  9
$EXTMIN
 10
1e+20
 20
1e+20
 30
1e+20
  9
$EXTMAX
 10
-1e+20
 20
-1e+20
 30
-1e+20
  9
$LIMMIN
 10
0.0
 20
0.0
  9
$LIMMAX
 10
420.0
 20
297.0
  9
$ORTHOMODE
 70
0
  9
$REGENMODE
 70
1
  9
$FILLMODE
 70
1
  9
$QTEXTMODE
 70
0
  9
$MIRRTEXT
 70
1
  9
$LTSCALE
 40
1.0
  9
$ATTMODE
 70
1
  9
$TEXTSIZE
 40
2.5
  9
$TRACEWID
 40
1.0
  9
$TEXTSTYLE
  7
OpenSans
  9
$CLAYER
  8
0
  9
$CELTYPE
  6
ByLayer
  9
$CECOLOR
 62
256
  9
$CELTSCALE
 40
1.0
  9
$DISPSILH
 70
0
  9
$DIMSCALE
 40
1.0
  9
$DIMASZ
 40
0.175
  9
$DIMEXO
 40
0.125
  9
$DIMDLI
 40
3.75
  9
$DIMRND
 40
0.0
  9
$DIMDLE
 40
0.0
  9
$DIMEXE
 40
0.375
  9
$DIMTP
 40
0.0
  9
$DIMTM
 40
0.0
  9
$DIMTXT
 40
0.25
  9
$DIMCEN
 40
2.5
  9
$DIMTSZ
 40
0.0
  9
$DIMTOL
 70
0
  9
$DIMLIM
 70
0
  9
$DIMTIH
 70
0
  9
$DIMTOH
 70
0
  9
$DIMSE1
 70
0
  9
$DIMSE2
 70
0
  9
$DIMTAD
 70
1
  9
$DIMZIN
 70
12
  9
$DIMBLK
  1
ARCHTICK
  9
$DIMASO
 70
1
  9
$DIMSHO
 70
1
  9
$DIMPOST
  1

  9
$DIMAPOST
  1

  9
$DIMALT
 70
0
  9
$DIMALTD
 70
3
  9
$DIMALTF
 40
0.03937007874
  9
$DIMLFAC
 40
100.0
  9
$DIMTOFL
 70
1
  9
$DIMTVP
 40
0.0
  9
$DIMTIX
 70
0
  9
$DIMSOXD
 70
0
  9
$DIMSAH
 70
0
  9
$DIMBLK1
  1

  9
$DIMBLK2
  1

  9
$DIMSTYLE
  2
EZDXF
  9
$DIMCLRD
 70
0
  9
$DIMCLRE
 70
0
  9
$DIMCLRT
 70
0
  9
$DIMTFAC
 40
0.5
  9
$DIMGAP
 40
0.1
  9
$DIMJUST
 70
0
  9
$DIMSD1
 70
0
  9
$DIMSD2
 70
0
  9
$DIMTOLJ
 70
0
  9
$DIMTZIN
 70
8
  9
$DIMALTZ
 70
0
  9
$DIMALTTZ
 70
0
  9
$DIMUPT
 70
1
  9
$DIMDEC
 70
2
  9
$DIMTDEC
 70
2
  9
$DIMALTU
 70
2
  9
$DIMALTTD
 70
3
  9
$DIMTXSTY
  7
OpenSansCondensed-Light
  9
$DIMAUNIT
 70
0
  9
$DIMADEC
 70
2
  9
$DIMALTRND
 40
0.0
  9
$DIMAZIN
 70
3
  9
$DIMDSEP
 70
46
  9
$DIMATFIT
 70
3
  9
$DIMFRAC
 70
0
  9
$DIMLDRBLK
  1

  9
$DIMLUNIT
 70
2
  9
$DIMLWD
 70
-2
  9
$DIMLWE
 70
-2
  9
$DIMTMOVE
 70
2
  9
$DIMFXL
 40
1.0
  9
$DIMFXLON
 70
0
  9
$DIMJOGANG
 40
0.785398163397
  9
$DIMTFILL
 70
0
  9
$DIMTFILLCLR
 70
0
  9
$DIMARCSYM
 70
0
  9
$DIMLTYPE
  6

  9
$DIMLTEX1
  6

  9
$DIMLTEX2
  6

  9
$DIMTXTDIRECTION
 70
0
  9
$LUNITS
 70
2
  9
$LUPREC
 70
4
  9
$SKETCHINC
 40
1.0
  9
$FILLETRAD
 40
10.0
  9
$AUNITS
 70
0
  9
$AUPREC
 70
2
  9
$MENU
  1
.
  9
$ELEVATION
 40
0.0
  9
$PELEVATION
 40
0.0
  9
$THICKNESS
 40
0.0
  9
$LIMCHECK
 70
0
  9
$CHAMFERA
 40
0.0
  9
$CHAMFERB
 40
0.0
  9
$CHAMFERC
 40
0.0
  9
$CHAMFERD
 40
0.0
  9
$SKPOLY
 70
0
  9
$TDCREATE
 40
2461317.794583333
  9
$TDUCREATE
 40
2458532.153996898
  9
$TDUPDATE
 40
2461317.794583333
  9
$TDUUPDATE
 40
2458532.1544311
  9
$TDINDWG
 40
0.0
  9
$TDUSRTIMER
 40
0.0
  9
$USRTIMER
 70
1
  9
$ANGBASE
 50
0.0
  9
$ANGDIR
 70
0
  9
$PDMODE
 70
0
  9
$PDSIZE
 40
0.0
  9
$PLINEWID
 40
0.0
  9
$SPLFRAME
 70
0
  9
$SPLINETYPE
 70
6
  9
$SPLINESEGS
 70
8
  9
$HANDSEED
  5
145
  9
$SURFTAB1
 70
6
  9
$SURFTAB2
 70
6
  9
$SURFTYPE
 70
6
  9
$SURFU
 70
6
  9
$SURFV
 70
6
  9
$UCSBASE
  2

  9
$UCSNAME
  2

  9
$UCSORG
 10
0.0
 20
0.0
 30
0.0
  9
$UCSXDIR
 10
1.0
 20
0.0
 30
0.0
  9
$UCSYDIR
 10
0.0
 20
1.0
 30
0.0
  9
$UCSORTHOREF
  2

  9
$UCSORTHOVIEW
 70
0
  9
$UCSORGTOP
 10
0.0
 20
0.0
 30
0.0
  9
$UCSORGBOTTOM
 10
0.0
 20
0.0
 30
0.0
  9
$UCSORGLEFT
 10
0.0
 20
0.0
 30
0.0
  9
$UCSORGRIGHT
 10
0.0
 20
0.0
 30
0.0
  9
$UCSORGFRONT
 10
0.0
 20
0.0
 30
0.0
  9
$UCSORGBACK
 10
0.0
 20
0.0
 30
0.0
  9
$PUCSBASE
  2

  9
$PUCSNAME
  2

  9
$PUCSORG
 10
0.0
 20
0.0
 30
0.0
  9
$PUCSXDIR
 10
1.0
 20
0.0
 30
0.0
  9
$PUCSYDIR
 10
0.0
 20
1.0
 30
0.0
  9
$PUCSORTHOREF
  2

  9
$PUCSORTHOVIEW
 70
0
  9
$PUCSORGTOP
 10
0.0
 20
0.0
 30
0.0
  9
$PUCSORGBOTTOM
 10
0.0
 20
0.0
 30
0.0
  9
$PUCSORGLEFT
 10
0.0
 20
0.0
 30
0.0
  9
$PUCSORGRIGHT
 10
0.0
 20
0.0
 30
0.0
  9
$PUCSORGFRONT
 10
0.0
 20
0.0
 30
0.0
  9
$PUCSORGBACK
 10
0.0
 20
0.0
 30
0.0
  9
$USERI1
 70
0
  9
$USERI2
 70
0
  9
$USERI3
 70
0
  9
$USERI4
 70
0
  9
$USERI5
 70
0
  9
$USERR1
 40
0.0
  9
$USERR2
 40
0.0
  9
$USERR3
 40
0.0
  9
$USERR4
 40
0.0
  9
$USERR5
 40
0.0
  9
$WORLDVIEW
 70
1
  9
$SHADEDGE
 70
3
  9
$SHADEDIF
 70
70
  9
$TILEMODE
 70
1
  9
$MAXACTVP
 70
64
  9
$PINSBASE
 10
0.0
 20
0.0
 30
0.0
  9
$PLIMCHECK
 70
0
  9
$PEXTMIN
 10
1e+20
 20
1e+20
 30
1e+20
  9
$PEXTMAX
 10
-1e+20
 20
-1e+20
 30
-1e+20
  9
$PLIMMIN
 10
0.0
 20
0.0
  9
$PLIMMAX
 10
420.0
 20
297.0
  9
$UNITMODE
 70
0
  9
$VISRETAIN
 70
1
  9
$PLINEGEN
 70
0
  9
$PSLTSCALE
 70
1
  9
$TREEDEPTH
 70
3020
  9
$CMLSTYLE
  2
Standard
  9
$CMLJUST
 70
0
  9
$CMLSCALE
 40
20.0
  9
$PROXYGRAPHICS
 70
1
  9
$MEASUREMENT
 70
1
  9
$CELWEIGHT
370
-1
  9
$ENDCAPS
280
0
  9
$JOINSTYLE
280
0
  9
$LWDISPLAY
290
0
  9
$INSUNITS
 70
6
  9
$HYPERLINKBASE
  1

  9
$STYLESHEET
  1

  9
$XEDIT
290
1
  9
$CEPSNTYPE
380
0
  9
$PSTYLEMODE
290
1
  9
$FINGERPRINTGUID
  2
{C23CA708-206B-4035-B3D2-0112B7FAFCA8}
  9
$VERSIONGUID
  2
{30AE769A-3C56-41AF-8919-BDE809232F6E}
  9
$EXTNAMES
290
1
  9
$PSVPSCALE
 40
0.0
  9
$OLESTARTUP
290
0
  9
$SORTENTS
280
127
  9
$INDEXCTL
280
0
  9
$HIDETEXT
280
1
  9
$XCLIPFRAME
280
1
  9
$HALOGAP
280
0
  9
$OBSCOLOR
 70
257
  9
$OBSLTYPE
280
0
  9
$INTERSECTIONDISPLAY
280
0
  9
$INTERSECTIONCOLOR
 70
257
  9
$DIMASSOC
280
2
  9
$PROJECTNAME
  1

  9
$CAMERADISPLAY
290
0
  9
$LENSLENGTH
 40
50.0
  9
$CAMERAHEIGHT
 40
0.0
  9
$STEPSPERSEC
 40
24.0
  9
$STEPSIZE
 40
100.0
  9
$3DDWFPREC
 40
2.0
  9
$PSOLWIDTH
 40
0.005
  9
$PSOLHEIGHT
 40
0.08
  9
$LOFTANG1
 40
1.570796326795
  9
$LOFTANG2
 40
1.570796326795
  9
$LOFTMAG1
 40
0.0
  9
$LOFTMAG2
 40
0.0
  9
$LOFTPARAM
 70
7
  9
$LOFTNORMALS
280
1
  9
$LATITUDE
 40
37.795
  9
$LONGITUDE
 40
-122.394
  9
$NORTHDIRECTION
 40
0.0
  9
$TIMEZONE
 70
-8000
  9
$LIGHTGLYPHDISPLAY
280
1
  9
$TILEMODELIGHTSYNCH
280
1
  9
$CMATERIAL
347
20
  9
$SOLIDHIST
280
0
  9
$SHOWHIST
280
1
  9
$DWFFRAME
280
2
  9
$DGNFRAME
280
2
  9
$REALWORLDSCALE
290
1
  9
$INTERFERECOLOR
 62
256
  9
$CSHADOW
280
0
  9
$SHADOWPLANELOCATION
 40
0.0
  0
ENDSEC
  0
SECTION
  2
CLASSES
  0
CLASS
  1
ACDBDICTIONARYWDFLT
  2
AcDbDictionaryWithDefault
  3
ObjectDBX Classes
 90
0
 91
0
280
0
281
0
  0
CLASS
  1
SUN
  2
AcDbSun
  3
SCENEOE
 90
1153
 91
0
280
0
281
0
  0
CLASS
  1
VISUALSTYLE
  2
AcDbVisualStyle
  3
ObjectDBX Classes
 90
4095
 91
0
280
0
281
0
  0
CLASS
  1
MATERIAL
  2
AcDbMaterial
  3
ObjectDBX Classes
 90
1153
 91
0
280
0
281
0
  0
CLASS
  1
SCALE
  2
AcDbScale
  3
ObjectDBX Classes
 90
1153
 91
0
280
0
281
0
  0
CLASS
  1
TABLESTYLE
  2
AcDbTableStyle
  3
ObjectDBX Classes
 90
4095
 91
0
280
0
281
0
  0
CLASS
  1
MLEADERSTYLE
  2
AcDbMLeaderStyle
  3
ACDB_MLEADERSTYLE_CLASS
 90
4095
 91
0
280
0
281
0
  0
CLASS
  1
DICTIONARYVAR
  2
AcDbDictionaryVar
  3
ObjectDBX Classes
 90
0
 91
0
280
0
281
0
  0
CLASS
  1
CELLSTYLEMAP
  2
AcDbCellStyleMap
  3
ObjectDBX Classes
 90
1152
 91
0
280
0
281
0
  0
CLASS
  1
MENTALRAYRENDERSETTINGS
  2
AcDbMentalRayRenderSettings
  3
SCENEOE
 90
1024
 91
0
280
0
281
0
  0
CLASS
  1
ACDBDETAILVIEWSTYLE
  2
AcDbDetailViewStyle
  3
ObjectDBX Classes
 90
1025
 91
0
280
0
281
0
  0
CLASS
  1
ACDBSECTIONVIEWSTYLE
  2
AcDbSectionViewStyle
  3
ObjectDBX Classes
 90
1025
 91
0
280
0
281
0
  0
CLASS
  1
RASTERVARIABLES
  2
AcDbRasterVariables
  3
ISM
 90
0
 91
0
280
0
281
0
  0
CLASS
  1
LAYOUT
  2
AcDbLayout
  3
ObjectDBX Classes
 90
0
 91
0
280
0
281
0
  0
CLASS
  1
ACDBPLACEHOLDER
  2
AcDbPlaceHolder
  3
ObjectDBX Classes
 90
0
 91
0
280
0
281
0
  0
ENDSEC
  0
SECTION
  2
TABLES
  0
TABLE
  2
VPORT
  5
8
330
0
100
AcDbSymbolTable
 70
1
  0
VPORT
  5
23
330
8
100
AcDbSymbolTableRecord
100
AcDbViewportTableRecord
  2
*Active
 70
0
 10
0.0
 20
0.0
 11
1.0
 21
1.0
 12
0.0
 22
0.0
 13
0.0
 23
0.0
 14
0.5
 24
0.5
 15
0.5
 25
0.5
 16
0.0
 26
0.0
 36
1.0
 17
0.0
 27
0.0
 37
0.0
 40
1000.0
 41
1.34
 42
50.0
 43
0.0
 44
0.0
 50
0.0
 51
0.0
 71
0
 72
1000
 73
1
 74
3
 75
0
 76
0
 77
0
 78
0
281
0
 65
0
146
0.0
  0
ENDTAB
  0
TABLE
  2
LTYPE
  5
2
330
0
100
AcDbSymbolTable
 70
21
  0
LTYPE
  5
24
330
2
100
AcDbSymbolTableRecord
100
AcDbLinetypeTableRecord
  2
ByBlock
 70
0
  3

 72
65
 73
0
 40
0.0
  0
LTYPE
  5
25
330
2
100
AcDbSymbolTableRecord
100
AcDbLinetypeTableRecord
  2
ByLayer
 70
0
  3

 72
65
 73
0
 40
0.0
  0
LTYPE
  5
26
330
2
100
AcDbSymbolTableRecord
100
AcDbLinetypeTableRecord
  2
Continuous
 70
0
  3

 72
65
 73
0
 40
0.0
  0
LTYPE
  5
2F
330
2
100
AcDbSymbolTableRecord
100
AcDbLinetypeTableRecord
  2
CENTER
 70
0
  3
Center ____ _ ____ _ ____ _ ____ _ ____ _ ____
 72
65
 73
4
 40
5.08
 49
3.175
 74
0
 49
-0.635
 74
0
 49
0.635
 74
0
 49
-0.635
 74
0
  0
LTYPE
  5
30
330
2
100
AcDbSymbolTableRecord
100
AcDbLinetypeTableRecord
  2
CENTERX2
 70
0
  3
Center (2x) ________  __  ________  __  ________
 72
65
 73
4
 40
8.89
 49
6.35
 74
0
 49
-0.635
 74
0
 49
1.27
 74
0
 49
-0.635
 74
0
  0
LTYPE
  5
31
330
2
100
AcDbSymbolTableRecord
100
AcDbLinetypeTableRecord
  2
CENTER2
 70
0
  3
Center (.5x) ____ _ ____ _ ____ _ ____ _ ____
 72
65
 73
4
 40
2.54
 49
1.587
 74
0
 49
-0.318
 74
0
 49
0.318
 74
0
 49
-0.318
 74
0
  0
LTYPE
  5
32
330
2
100
AcDbSymbolTableRecord
100
AcDbLinetypeTableRecord
  2
DASHED
 70
0
  3
Dashed __ __ __ __ __ __ __ __ __ __ __ __ __ _
 72
65
 73
2
 40
1.524
 49
1.27
 74
0
 49
-0.254
 74
0
  0
LTYPE
  5
33
330
2
100
AcDbSymbolTableRecord
100
AcDbLinetypeTableRecord
  2
DASHEDX2
 70
0
  3
Dashed (2x) ____  ____  ____  ____  ____  ____
 72
65
 73
2
 40
3.048
 49
2.54
 74
0
 49
-0.508
 74
0
  0
LTYPE
  5
34
330
2
100
AcDbSymbolTableRecord
100
AcDbLinetypeTableRecord
  2
DASHED2
 70
0
  3
Dashed (.5x) _ _ _ _ _ _ _ _ _ _ _ _ _ _
 72
65
 73
2
 40
0.762
 49
0.635
 74
0
 49
-0.127
 74
0
  0
LTYPE
  5
35
330
2
100
AcDbSymbolTableRecord
100
AcDbLinetypeTableRecord
  2
PHANTOM
 70
0
  3
Phantom ______  __  __  ______  __  __  ______
 72
65
 73
6
 40
6.35
 49
3.175
 74
0
 49
-0.635
 74
0
 49
0.635
 74
0
 49
-0.635
 74
0
 49
0.635
 74
0
 49
-0.635
 74
0
  0
LTYPE
  5
36
330
2
100
AcDbSymbolTableRecord
100
AcDbLinetypeTableRecord
  2
PHANTOMX2
 70
0
  3
Phantom (2x)____________    ____    ____    ____________
 72
65
 73
6
 40
10.795
 49
6.35
 74
0
 49
-0.635
 74
0
 49
1.27
 74
0
 49
-0.635
 74
0
 49
1.27
 74
0
 49
-0.635
 74
0
  0
LTYPE
  5
37
330
2
100
AcDbSymbolTableRecord
100
AcDbLinetypeTableRecord
  2
PHANTOM2
 70
0
  3
Phantom (.5x) ___ _ _ ___ _ _ ___ _ _ ___ _ _ ___
 72
65
 73
6
 40
3.175
 49
1.587
 74
0
 49
-0.318
 74
0
 49
0.318
 74
0
 49
-0.318
 74
0
 49
0.318
 74
0
 49
-0.318
 74
0
  0
LTYPE
  5
38
330
2
100
AcDbSymbolTableRecord
100
AcDbLinetypeTableRecord
  2
DASHDOT
 70
0
  3
Dash dot __ . __ . __ . __ . __ . __ . __ . __
 72
65
 73
4
 40
3.556
 49
2.54
 74
0
 49
-0.508
 74
0
 49
0.0
 74
0
 49
-0.508
 74
0
  0
LTYPE
  5
39
330
2
100
AcDbSymbolTableRecord
100
AcDbLinetypeTableRecord
  2
DASHDOTX2
 70
0
  3
Dash dot (2x) ____  .  ____  .  ____  .  ____
 72
65
 73
4
 40
6.096
 49
5.08
 74
0
 49
-0.508
 74
0
 49
0.0
 74
0
 49
-0.508
 74
0
  0
LTYPE
  5
3A
330
2
100
AcDbSymbolTableRecord
100
AcDbLinetypeTableRecord
  2
DASHDOT2
 70
0
  3
Dash dot (.5x) _ . _ . _ . _ . _ . _ . _ . _
 72
65
 73
4
 40
1.778
 49
1.27
 74
0
 49
-0.254
 74
0
 49
0.0
 74
0
 49
-0.254
 74
0
  0
LTYPE
  5
3B
330
2
100
AcDbSymbolTableRecord
100
AcDbLinetypeTableRecord
  2
DOT
 70
0
  3
Dot .  .  .  .  .  .  .  .  .  .  .  .  .  .  .  .
 72
65
 73
2
 40
0.508
 49
0.0
 74
0
 49
-0.508
 74
0
  0
LTYPE
  5
3C
330
2
100
AcDbSymbolTableRecord
100
AcDbLinetypeTableRecord
  2
DOTX2
 70
0
  3
Dot (2x) .    .    .    .    .    .    .    . 
 72
65
 73
2
 40
1.016
 49
0.0
 74
0
 49
-1.016
 74
0
  0
LTYPE
  5
3D
330
2
100
AcDbSymbolTableRecord
100
AcDbLinetypeTableRecord
  2
DOT2
 70
0
  3
Dot (.5) . . . . . . . . . . . . . . . . . . . 
 72
65
 73
2
 40
0.254
 49
0.0
 74
0
 49
-0.254
 74
0
  0
LTYPE
  5
3E
330
2
100
AcDbSymbolTableRecord
100
AcDbLinetypeTableRecord
  2
DIVIDE
 70
0
  3
Divide __ . . __ . . __ . . __ . . __ . . __
 72
65
 73
6
 40
4.064
 49
2.54
 74
0
 49
-0.508
 74
0
 49
0.0
 74
0
 49
-0.508
 74
0
 49
0.0
 74
0
 49
-0.508
 74
0
  0
LTYPE
  5
3F
330
2
100
AcDbSymbolTableRecord
100
AcDbLinetypeTableRecord
  2
DIVIDEX2
 70
0
  3
Divide (2x) ____  . .  ____  . .  ____  . .  ____
 72
65
 73
6
 40
6.604
 49
5.08
 74
0
 49
-0.508
 74
0
 49
0.0
 74
0
 49
-0.508
 74
0
 49
0.0
 74
0
 49
-0.508
 74
0
  0
LTYPE
  5
40
330
2
100
AcDbSymbolTableRecord
100
AcDbLinetypeTableRecord
  2
DIVIDE2
 70
0
  3
Divide(.5x) _ . _ . _ . _ . _ . _ . _ . _
 72
65
 73
6
 40
2.032
 49
1.27
 74
0
 49
-0.254
 74
0
 49
0.0
 74
0
 49
-0.254
 74
0
 49
0.0
 74
0
 49
-0.254
 74
0
  0
ENDTAB
  0
TABLE
  2
LAYER
  5
1
330
0
100
AcDbSymbolTable
 70
5
  0
LAYER
  5
27
330
1
100
AcDbSymbolTableRecord
100
AcDbLayerTableRecord
  2
0
 70
0
 62
7
  6
Continuous
370
-3
390
13
347
21
  0
LAYER
  5
28
330
1
100
AcDbSymbolTableRecord
100
AcDbLayerTableRecord
  2
Defpoints
 70
0
 62
7
  6
Continuous
290
0
370
-3
390
13
347
21
  0
LAYER
  5
8A
330
1
100
AcDbSymbolTableRecord
100
AcDbLayerTableRecord
  2
BLINDING-GROUND-BEAMS
 70
0
 62
30
  6
Continuous
370
-3
390
13
347
21
  0
LAYER
  5
8B
330
1
100
AcDbSymbolTableRecord
100
AcDbLayerTableRecord
  2
BLINDING-GROUND-BEAMS-HATCH
 70
0
 62
30
  6
Continuous
370
-3
390
13
347
21
  0
LAYER
  5
8C
330
1
100
AcDbSymbolTableRecord
100
AcDbLayerTableRecord
  2
BLINDING-LABEL
 70
0
 62
7
  6
Continuous
370
-3
390
13
347
21
  0
ENDTAB
  0
TABLE
  2
STYLE
  5
5
330
0
100
AcDbSymbolTable
 70
26
  0
STYLE
  5
29
330
5
100
AcDbSymbolTableRecord
100
AcDbTextStyleTableRecord
  2
Standard
 70
0
 40
0.0
 41
1.0
 50
0.0
 71
0
 42
2.5
  3
txt
  4

  0
STYLE
  5
41
330
5
100
AcDbSymbolTableRecord
100
AcDbTextStyleTableRecord
  2
OpenSans-Light
 70
0
 40
0.0
 41
1.0
 50
0.0
 71
0
 42
2.5
  3
OpenSans-Light.ttf
  4

  0
STYLE
  5
42
330
5
100
AcDbSymbolTableRecord
100
AcDbTextStyleTableRecord
  2
OpenSans-Light-Italic
 70
0
 40
0.0
 41
1.0
 50
0.0
 71
0
 42
2.5
  3
OpenSans-LightItalic.ttf
  4

  0
STYLE
  5
43
330
5
100
AcDbSymbolTableRecord
100
AcDbTextStyleTableRecord
  2
OpenSans
 70
0
 40
0.0
 41
1.0
 50
0.0
 71
0
 42
2.5
  3
OpenSans-Regular.ttf
  4

  0
STYLE
  5
44
330
5
100
AcDbSymbolTableRecord
100
AcDbTextStyleTableRecord
  2
OpenSans-Italic
 70
0
 40
0.0
 41
1.0
 50
0.0
 71
0
 42
2.5
  3
OpenSans-Italic.ttf
  4

  0
STYLE
  5
45
330
5
100
AcDbSymbolTableRecord
100
AcDbTextStyleTableRecord
  2
OpenSans-SemiBold
 70
0
 40
0.0
 41
1.0
 50
0.0
 71
0
 42
2.5
  3
OpenSans-SemiBold.ttf
  4

  0
STYLE
  5
46
330
5
100
AcDbSymbolTableRecord
100
AcDbTextStyleTableRecord
  2
OpenSans-SemiBoldItalic
 70
0
 40
0.0
 41
1.0
 50
0.0
 71
0
 42
2.5
  3
OpenSans-SemiBoldItalic.ttf
  4

  0
STYLE
  5
47
330
5
100
AcDbSymbolTableRecord
100
AcDbTextStyleTableRecord
  2
OpenSans-Bold
 70
0
 40
0.0
 41
1.0
 50
0.0
 71
0
 42
2.5
  3
OpenSans-Bold.ttf
  4

  0
STYLE
  5
48
330
5
100
AcDbSymbolTableRecord
100
AcDbTextStyleTableRecord
  2
OpenSans-BoldItalic
 70
0
 40
0.0
 41
1.0
 50
0.0
 71
0
 42
2.5
  3
OpenSans-BoldItalic.ttf
  4

  0
STYLE
  5
49
330
5
100
AcDbSymbolTableRecord
100
AcDbTextStyleTableRecord
  2
OpenSans-ExtraBold
 70
0
 40
0.0
 41
1.0
 50
0.0
 71
0
 42
2.5
  3
OpenSans-ExtraBold.ttf
  4

  0
STYLE
  5
4A
330
5
100
AcDbSymbolTableRecord
100
AcDbTextStyleTableRecord
  2
OpenSans-ExtraBoldItalic
 70
0
 40
0.0
 41
1.0
 50
0.0
 71
0
 42
2.5
  3
OpenSans-ExtraBoldItalic.ttf
  4

  0
STYLE
  5
4B
330
5
100
AcDbSymbolTableRecord
100
AcDbTextStyleTableRecord
  2
OpenSansCondensed-Bold
 70
0
 40
0.0
 41
1.0
 50
0.0
 71
0
 42
2.5
  3
OpenSansCondensed-Bold.ttf
  4

  0
STYLE
  5
4C
330
5
100
AcDbSymbolTableRecord
100
AcDbTextStyleTableRecord
  2
OpenSansCondensed-Light
 70
0
 40
0.0
 41
1.0
 50
0.0
 71
0
 42
2.5
  3
OpenSansCondensed-Light.ttf
  4

  0
STYLE
  5
4D
330
5
100
AcDbSymbolTableRecord
100
AcDbTextStyleTableRecord
  2
OpenSansCondensed-Italic
 70
0
 40
0.0
 41
1.0
 50
0.0
 71
0
 42
2.5
  3
OpenSansCondensed-LightItalic.ttf
  4

  0
STYLE
  5
4E
330
5
100
AcDbSymbolTableRecord
100
AcDbTextStyleTableRecord
  2
LiberationSans
 70
0
 40
0.0
 41
1.0
 50
0.0
 71
0
 42
2.5
  3
LiberationSans-Regular.ttf
  4

  0
STYLE
  5
4F
330
5
100
AcDbSymbolTableRecord
100
AcDbTextStyleTableRecord
  2
LiberationSans-Bold
 70
0
 40
0.0
 41
1.0
 50
0.0
 71
0
 42
2.5
  3
LiberationSans-Bold.ttf
  4

  0
STYLE
  5
50
330
5
100
AcDbSymbolTableRecord
100
AcDbTextStyleTableRecord
  2
LiberationSans-BoldItalic
 70
0
 40
0.0
 41
1.0
 50
0.0
 71
0
 42
2.5
  3
LiberationSans-BoldItalic.ttf
  4

  0
STYLE
  5
51
330
5
100
AcDbSymbolTableRecord
100
AcDbTextStyleTableRecord
  2
LiberationSans-Italic
 70
0
 40
0.0
 41
1.0
 50
0.0
 71
0
 42
2.5
  3
LiberationSans-Italic.ttf
  4

  0
STYLE
  5
52
330
5
100
AcDbSymbolTableRecord
100
AcDbTextStyleTableRecord
  2
LiberationSerif
 70
0
 40
0.0
 41
1.0
 50
0.0
 71
0
 42
2.5
  3
LiberationSerif-Regular.ttf
  4

  0
STYLE
  5
53
330
5
100
AcDbSymbolTableRecord
100
AcDbTextStyleTableRecord
  2
LiberationSerif-Bold
 70
0
 40
0.0
 41
1.0
 50
0.0
 71
0
 42
2.5
  3
LiberationSerif-Bold.ttf
  4

  0
STYLE
  5
54
330
5
100
AcDbSymbolTableRecord
100
AcDbTextStyleTableRecord
  2
LiberationSerif-BoldItalic
 70
0
 40
0.0
 41
1.0
 50
0.0
 71
0
 42
2.5
  3
LiberationSerif-BoldItalic.ttf
  4

  0
STYLE
  5
55
330
5
100
AcDbSymbolTableRecord
100
AcDbTextStyleTableRecord
  2
LiberationSerif-Italic
 70
0
 40
0.0
 41
1.0
 50
0.0
 71
0
 42
2.5
  3
LiberationSerif-Italic.ttf
  4

  0
STYLE
  5
56
330
5
100
AcDbSymbolTableRecord
100
AcDbTextStyleTableRecord
  2
LiberationMono
 70
0
 40
0.0
 41
1.0
 50
0.0
 71
0
 42
2.5
  3
LiberationMono-Regular.ttf
  4

  0
STYLE
  5
57
330
5
100
AcDbSymbolTableRecord
100
AcDbTextStyleTableRecord
  2
LiberationMono-Bold
 70
0
 40
0.0
 41
1.0
 50
0.0
 71
0
 42
2.5
  3
LiberationMono-Bold.ttf
  4

  0
STYLE
  5
58
330
5
100
AcDbSymbolTableRecord
100
AcDbTextStyleTableRecord
  2
LiberationMono-BoldItalic
 70
0
 40
0.0
 41
1.0
 50
0.0
 71
0
 42
2.5
  3
LiberationMono-BoldItalic.ttf
  4

  0
STYLE
  5
59
330
5
100
AcDbSymbolTableRecord
100
AcDbTextStyleTableRecord
  2
LiberationMono-Italic
 70
0
 40
0.0
 41
1.0
 50
0.0
 71
0
 42
2.5
  3
LiberationMono-Italic.ttf
  4

  0
ENDTAB
  0
TABLE
  2
VIEW
  5
7
330
0
100
AcDbSymbolTable
 70
0
  0
ENDTAB
  0
TABLE
  2
UCS
  5
6
330
0
100
AcDbSymbolTable
 70
0
  0
ENDTAB
  0
TABLE
  2
APPID
  5
3
330
0
100
AcDbSymbolTable
 70
3
  0
APPID
  5
2A
330
3
100
AcDbSymbolTableRecord
100
AcDbRegAppTableRecord
  2
ACAD
 70
0
  0
APPID
  5
142
330
3
100
AcDbSymbolTableRecord
100
AcDbRegAppTableRecord
  2
HATCHBACKGROUNDCOLOR
 70
0
  0
APPID
  5
143
330
3
100
AcDbSymbolTableRecord
100
AcDbRegAppTableRecord
  2
EZDXF
 70
0
  0
ENDTAB
  0
TABLE
  2
DIMSTYLE
  5
4
330
0
100
AcDbSymbolTable
 70
12
100
AcDbDimStyleTable
  0
DIMSTYLE
105
2B
330
4
100
AcDbSymbolTableRecord
100
AcDbDimStyleTableRecord
  2
Standard
 70
0
 40
1.0
 41
2.5
 42
0.625
 43
3.75
 44
1.25
 45
0.0
 46
0.0
 47
0.0
 48
0.0
 49
2.5
140
2.5
141
2.5
142
0.0
143
0.03937007874
144
1.0
145
0.0
146
1.0
147
0.625
148
0.0
 69
0
 70
0
 71
0
 72
0
 73
0
 74
0
 75
0
 76
0
 77
1
 78
8
 79
3
170
0
171
3
172
1
173
0
174
0
175
0
176
0
177
0
178
0
179
2
271
2
272
2
273
2
274
3
275
0
276
0
277
2
278
44
279
0
280
0
281
0
282
0
283
0
284
8
285
0
286
0
288
0
289
3
290
0
371
-2
372
-2
  0
DIMSTYLE
105
73
330
4
100
AcDbSymbolTableRecord
100
AcDbDimStyleTableRecord
  2
EZDXF
 70
0
 40
1.0
 41
0.175
 42
0.125
 43
3.75
 44
0.375
 45
0.0
 46
0.0
 47
0.0
 48
0.0
 49
2.5
140
0.25
141
2.5
142
0.0
143
0.03937007874
144
100.0
145
0.0
146
0.5
147
0.1
148
0.0
 69
0
 70
0
 71
0
 72
0
 73
0
 74
0
 75
0
 76
0
 77
1
 78
12
 79
3
170
0
171
3
172
1
173
0
174
0
175
0
176
0
177
0
178
0
179
2
271
2
272
2
273
2
274
3
275
0
276
0
277
2
278
46
279
2
280
0
281
0
282
0
283
0
284
8
285
0
286
0
288
1
289
3
290
0
340
4C
342
74
371
-2
372
-2
  0
DIMSTYLE
105
7C
330
4
100
AcDbSymbolTableRecord
100
AcDbDimStyleTableRecord
  2
EZ_M_100_H25_CM
 70
0
 40
1.0
 41
0.25
 42
0.125
 43
3.75
 44
0.375
 45
0.0
 46
0.0
 47
0.0
 48
0.0
 49
2.5
140
0.25
141
2.5
142
0.125
143
0.03937007874
144
100.0
145
0.0
146
0.5
147
0.1
148
0.0
 69
0
 70
0
 71
0
 72
0
 73
0
 74
0
 75
0
 76
0
 77
1
 78
12
 79
3
170
0
171
3
172
1
173
0
174
0
175
0
176
0
177
0
178
0
179
2
271
2
272
2
273
2
274
3
275
0
276
0
277
2
278
46
279
2
280
0
281
0
282
0
283
0
284
8
285
0
286
0
288
1
289
3
290
0
340
4C
371
-2
372
-2
  0
DIMSTYLE
105
7D
330
4
100
AcDbSymbolTableRecord
100
AcDbDimStyleTableRecord
  2
EZ_M_50_H25_CM
 70
0
 40
1.0
 41
0.125
 42
0.0625
 43
3.75
 44
0.1875
 45
0.0
 46
0.0
 47
0.0
 48
0.0
 49
2.5
140
0.125
141
2.5
142
0.0625
143
0.03937007874
144
100.0
145
0.0
146
0.5
147
0.05
148
0.0
 69
0
 70
0
 71
0
 72
0
 73
0
 74
0
 75
0
 76
0
 77
1
 78
12
 79
3
170
0
171
3
172
1
173
0
174
0
175
0
176
0
177
0
178
0
179
2
271
2
272
2
273
2
274
3
275
0
276
0
277
2
278
46
279
2
280
0
281
0
282
0
283
0
284
8
285
0
286
0
288
1
289
3
290
0
340
4C
371
-2
372
-2
  0
DIMSTYLE
105
7E
330
4
100
AcDbSymbolTableRecord
100
AcDbDimStyleTableRecord
  2
EZ_M_25_H25_CM
 70
0
 40
1.0
 41
0.0625
 42
0.03125
 43
3.75
 44
0.09375
 45
0.0
 46
0.0
 47
0.0
 48
0.0
 49
2.5
140
0.0625
141
2.5
142
0.03125
143
0.03937007874
144
100.0
145
0.0
146
0.5
147
0.025
148
0.0
 69
0
 70
0
 71
0
 72
0
 73
0
 74
0
 75
0
 76
0
 77
1
 78
12
 79
3
170
0
171
3
172
1
173
0
174
0
175
0
176
0
177
0
178
0
179
2
271
2
272
2
273
2
274
3
275
0
276
0
277
2
278
46
279
2
280
0
281
0
282
0
283
0
284
8
285
0
286
0
288
1
289
3
290
0
340
4C
371
-2
372
-2
  0
DIMSTYLE
105
7F
330
4
100
AcDbSymbolTableRecord
100
AcDbDimStyleTableRecord
  2
EZ_M_20_H25_CM
 70
0
 40
1.0
 41
0.05
 42
0.025
 43
3.75
 44
0.07500000000000001
 45
0.0
 46
0.0
 47
0.0
 48
0.0
 49
2.5
140
0.05
141
2.5
142
0.025
143
0.03937007874
144
100.0
145
0.0
146
0.5
147
0.020000000000000004
148
0.0
 69
0
 70
0
 71
0
 72
0
 73
0
 74
0
 75
0
 76
0
 77
1
 78
12
 79
3
170
0
171
3
172
1
173
0
174
0
175
0
176
0
177
0
178
0
179
2
271
2
272
2
273
2
274
3
275
0
276
0
277
2
278
46
279
2
280
0
281
0
282
0
283
0
284
8
285
0
286
0
288
1
289
3
290
0
340
4C
371
-2
372
-2
  0
DIMSTYLE
105
80
330
4
100
AcDbSymbolTableRecord
100
AcDbDimStyleTableRecord
  2
EZ_M_10_H25_CM
 70
0
 40
1.0
 41
0.025
 42
0.0125
 43
3.75
 44
0.037500000000000006
 45
0.0
 46
0.0
 47
0.0
 48
0.0
 49
2.5
140
0.025
141
2.5
142
0.0125
143
0.03937007874
144
100.0
145
0.0
146
0.5
147
0.010000000000000002
148
0.0
 69
0
 70
0
 71
0
 72
0
 73
0
 74
0
 75
0
 76
0
 77
1
 78
12
 79
3
170
0
171
3
172
1
173
0
174
0
175
0
176
0
177
0
178
0
179
2
271
2
272
2
273
2
274
3
275
0
276
0
277
2
278
46
279
2
280
0
281
0
282
0
283
0
284
8
285
0
286
0
288
1
289
3
290
0
340
4C
371
-2
372
-2
  0
DIMSTYLE
105
81
330
4
100
AcDbSymbolTableRecord
100
AcDbDimStyleTableRecord
  2
EZ_M_5_H25_CM
 70
0
 40
1.0
 41
0.0125
 42
0.00625
 43
3.75
 44
0.018750000000000003
 45
0.0
 46
0.0
 47
0.0
 48
0.0
 49
2.5
140
0.0125
141
2.5
142
0.00625
143
0.03937007874
144
100.0
145
0.0
146
0.5
147
0.005000000000000001
148
0.0
 69
0
 70
0
 71
0
 72
0
 73
0
 74
0
 75
0
 76
0
 77
1
 78
12
 79
3
170
0
171
3
172
1
173
0
174
0
175
0
176
0
177
0
178
0
179
2
271
2
272
2
273
2
274
3
275
0
276
0
277
2
278
46
279
2
280
0
281
0
282
0
283
0
284
8
285
0
286
0
288
1
289
3
290
0
340
4C
371
-2
372
-2
  0
DIMSTYLE
105
82
330
4
100
AcDbSymbolTableRecord
100
AcDbDimStyleTableRecord
  2
EZ_M_1_H25_CM
 70
0
 40
1.0
 41
0.0025
 42
0.00125
 43
3.75
 44
0.00375
 45
0.0
 46
0.0
 47
0.0
 48
0.0
 49
2.5
140
0.0025
141
2.5
142
0.00125
143
0.03937007874
144
100.0
145
0.0
146
0.5
147
0.001
148
0.0
 69
0
 70
0
 71
0
 72
0
 73
0
 74
0
 75
0
 76
0
 77
1
 78
12
 79
3
170
0
171
3
172
1
173
0
174
0
175
0
176
0
177
0
178
0
179
2
271
2
272
2
273
2
274
3
275
0
276
0
277
2
278
46
279
2
280
0
281
0
282
0
283
0
284
8
285
0
286
0
288
1
289
3
290
0
340
4C
371
-2
372
-2
  0
DIMSTYLE
105
83
330
4
100
AcDbSymbolTableRecord
100
AcDbDimStyleTableRecord
  2
EZ_RADIUS
 70
0
 40
1.0
 41
0.25
 42
0.125
 43
3.75
 44
0.375
 45
0.0
 46
0.0
 47
0.0
 48
0.0
 49
2.5
140
0.25
141
0.0
142
0.0
143
0.03937007874
144
100.0
145
0.0
146
0.5
147
0.1
148
0.0
 69
0
 70
0
 71
0
 72
0
 73
0
 74
0
 75
0
 76
0
 77
1
 78
12
 79
3
170
0
171
3
172
0
173
0
174
0
175
0
176
0
177
0
178
0
179
2
271
2
272
2
273
2
274
3
275
0
276
0
277
2
278
46
279
1
280
0
281
0
282
0
283
0
284
8
285
0
286
0
288
1
289
3
290
0
340
4C
342
84
371
-2
372
-2
  0
DIMSTYLE
105
88
330
4
100
AcDbSymbolTableRecord
100
AcDbDimStyleTableRecord
  2
EZ_RADIUS_INSIDE
 70
0
 40
1.0
 41
0.25
 42
0.125
 43
3.75
 44
0.375
 45
0.0
 46
0.0
 47
0.0
 48
0.0
 49
2.5
140
0.25
141
0.0
142
0.0
143
0.03937007874
144
100.0
145
0.0
146
0.5
147
0.1
148
0.0
 69
0
 70
0
 71
0
 72
0
 73
0
 74
0
 75
0
 76
0
 77
0
 78
12
 79
3
170
0
171
3
172
0
173
0
174
1
175
0
176
0
177
0
178
0
179
2
271
2
272
2
273
2
274
3
275
0
276
0
277
2
278
46
279
0
280
0
281
0
282
0
283
0
284
8
285
0
286
0
288
1
289
0
290
0
340
4C
342
84
371
-2
372
-2
  0
DIMSTYLE
105
89
330
4
100
AcDbSymbolTableRecord
100
AcDbDimStyleTableRecord
  2
EZ_CURVED
 70
0
 40
1.0
 41
0.25
 42
0.125
 43
3.75
 44
0.375
 45
0.0
 46
0.0
 47
0.0
 48
0.0
 49
2.5
140
0.25
141
2.5
142
0.0
143
0.03937007874
144
100.0
145
0.0
146
0.5
147
0.1
148
0.0
 69
0
 70
0
 71
0
 72
0
 73
0
 74
0
 75
0
 76
0
 77
1
 78
12
 79
2
 90
2
170
0
171
3
172
1
173
0
174
0
175
0
176
0
177
0
178
0
179
2
271
2
272
2
273
2
274
3
275
0
276
0
277
2
278
46
279
2
280
0
281
0
282
0
283
0
284
8
285
0
286
0
288
1
289
3
290
0
340
4C
371
-2
372
-2
  0
ENDTAB
  0
TABLE
  2
BLOCK_RECORD
  5
9
330
0
100
AcDbSymbolTable
 70
5
  0
BLOCK_RECORD
  5
17
330
9
100
AcDbSymbolTableRecord
100
AcDbBlockTableRecord
  2
*Model_Space
340
1A
 70
0
280
1
281
0
  0
BLOCK_RECORD
  5
1B
330
9
100
AcDbSymbolTableRecord
100
AcDbBlockTableRecord
  2
*Paper_Space
340
1E
 70
0
280
1
281
0
  0
BLOCK_RECORD
  5
74
330
9
100
AcDbSymbolTableRecord
100
AcDbBlockTableRecord
  2
_ARCHTICK
340
0
 70
0
280
1
281
0
  0
BLOCK_RECORD
  5
78
330
9
100
AcDbSymbolTableRecord
100
AcDbBlockTableRecord
  2
_CLOSEDFILLED
340
0
 70
0
280
1
281
0
  0
BLOCK_RECORD
  5
84
330
9
100
AcDbSymbolTableRecord
100
AcDbBlockTableRecord
  2
_CLOSEDBLANK
340
0
 70
0
280
1
281
0
  0
ENDTAB
  0
ENDSEC
  0
SECTION
  2
BLOCKS
  0
BLOCK
  5
18
330
17
100
AcDbEntity
  8
0
100
AcDbBlockBegin
  2
*Model_Space
 70
0
 10
0.0
 20
0.0
 30
0.0
  3
*Model_Space
  1

  0
ENDBLK
  5
19
330
17
100
AcDbEntity
  8
0
100
AcDbBlockEnd
  0
BLOCK
  5
1C
330
1B
100
AcDbEntity
  8
0
100
AcDbBlockBegin
  2
*Paper_Space
 70
0
 10
0.0
 20
0.0
 30
0.0
  3
*Paper_Space
  1

  0
ENDBLK
  5
1D
330
1B
100
AcDbEntity
  8
0
100
AcDbBlockEnd
  0
BLOCK
  5
75
330
74
100
AcDbEntity
  8
0
100
AcDbBlockBegin
  2
_ARCHTICK
 70
0
 10
0.0
 20
0.0
 30
0.0
  3
_ARCHTICK
  1

  0
LWPOLYLINE
  5
77
330
74
100
AcDbEntity
  8
0
  6
BYBLOCK
 62
0
100
AcDbPolyline
 90
2
 70
0
 43
0.15
 10
-0.5
 20
-0.5
 10
0.5
 20
0.5
  0
ENDBLK
  5
76
330
74
100
AcDbEntity
  8
0
100
AcDbBlockEnd
  0
BLOCK
  5
79
330
78
100
AcDbEntity
  8
0
100
AcDbBlockBegin
  2
_CLOSEDFILLED
 70
0
 10
0.0
 20
0.0
 30
0.0
  3
_CLOSEDFILLED
  1

  0
SOLID
  5
7B
330
78
100
AcDbEntity
  8
0
  6
BYBLOCK
 62
0
100
AcDbTrace
 10
-1.0
 20
0.16439898372402537
 30
0.0
 11
0.0
 21
0.0
 31
0.0
 12
-1.0
 22
-0.16439898372402537
 32
0.0
 13
-1.0
 23
-0.16439898372402537
 33
0.0
  0
ENDBLK
  5
7A
330
78
100
AcDbEntity
  8
0
100
AcDbBlockEnd
  0
BLOCK
  5
85
330
84
100
AcDbEntity
  8
0
100
AcDbBlockBegin
  2
_CLOSEDBLANK
 70
0
 10
0.0
 20
0.0
 30
0.0
  3
_CLOSEDBLANK
  1

  0
LWPOLYLINE
  5
87
330
84
100
AcDbEntity
  8
0
  6
BYBLOCK
 62
0
100
AcDbPolyline
 90
3
 70
1
 10
-1.0
 20
0.16439898372402537
 10
0.0
 20
0.0
 10
-1.0
 20
-0.16439898372402537
  0
ENDBLK
  5
86
330
84
100
AcDbEntity
  8
0
100
AcDbBlockEnd
  0
ENDSEC
  0
SECTION
  2
ENTITIES
  0
LWPOLYLINE
  5
8D
330
17
100
AcDbEntity
  8
BLINDING-GROUND-BEAMS
100
AcDbPolyline
 90
4
 70
1
 10
-19.43778338947779
 20
55.8957712960256
 10
-25.707769851591127
 20
55.32214928220765
 10
-25.662216610522204
 20
54.82422870397441
 10
-19.392230148408867
 20
55.397850717792366
  0
HATCH
  5
8E
330
17
100
AcDbEntity
  8
BLINDING-GROUND-BEAMS-HATCH
 62
7
100
AcDbHatch
 10
0.0
 20
0.0
 30
0.0
210
0.0
220
0.0
230
1.0
  2
ANSI31
 70
0
 71
0
 91
1
 92
3
 72
0
 73
1
 93
4
 10
-19.43778338947779
 20
55.8957712960256
 10
-25.707769851591127
 20
55.32214928220765
 10
-25.662216610522204
 20
54.82422870397441
 10
-19.392230148408867
 20
55.397850717792366
 97
0
 75
1
 76
1
 52
0.0
 41
0.03
 77
0
 78
1
 53
45.0
 43
0.0
 44
0.0
 45
-0.0673519209
 46
0.0673519209
 79
0
 98
0
  0
LWPOLYLINE
  5
8F
330
17
100
AcDbEntity
  8
BLINDING-GROUND-BEAMS
100
AcDbPolyline
 90
4
 70
1
 10
-16.6
 20
52.75999999999999
 10
-16.6
 20
51.94
 10
-16.1
 20
51.94
 10
-16.1
 20
52.75999999999999
  0
HATCH
  5
90
330
17
100
AcDbEntity
  8
BLINDING-GROUND-BEAMS-HATCH
 62
7
100
AcDbHatch
 10
0.0
 20
0.0
 30
0.0
210
0.0
220
0.0
230
1.0
  2
ANSI31
 70
0
 71
0
 91
1
 92
3
 72
0
 73
1
 93
4
 10
-16.6
 20
52.75999999999999
 10
-16.6
 20
51.94
 10
-16.1
 20
51.94
 10
-16.1
 20
52.75999999999999
 97
0
 75
1
 76
1
 52
0.0
 41
0.03
 77
0
 78
1
 53
45.0
 43
0.0
 44
0.0
 45
-0.0673519209
 46
0.0673519209
 79
0
 98
0
  0
LWPOLYLINE
  5
91
330
17
100
AcDbEntity
  8
BLINDING-GROUND-BEAMS
100
AcDbPolyline
 90
4
 70
1
 10
-9.399999999999999
 20
52.75999999999999
 10
-9.399999999999999
 20
51.84
 10
-8.899999999999999
 20
51.84
 10
-8.899999999999999
 20
52.75999999999999
  0
HATCH
  5
92
330
17
100
AcDbEntity
  8
BLINDING-GROUND-BEAMS-HATCH
 62
7
100
AcDbHatch
 10
0.0
 20
0.0
 30
0.0
210
0.0
220
0.0
230
1.0
  2
ANSI31
 70
0
 71
0
 91
1
 92
3
 72
0
 73
1
 93
4
 10
-9.399999999999999
 20
52.75999999999999
 10
-9.399999999999999
 20
51.84
 10
-8.899999999999999
 20
51.84
 10
-8.899999999999999
 20
52.75999999999999
 97
0
 75
1
 76
1
 52
0.0
 41
0.03
 77
0
 78
1
 53
45.0
 43
0.0
 44
0.0
 45
-0.0673519209
 46
0.0673519209
 79
0
 98
0
  0
LWPOLYLINE
  5
93
330
17
100
AcDbEntity
  8
BLINDING-GROUND-BEAMS
100
AcDbPolyline
 90
4
 70
1
 10
1.8000000000000007
 20
52.75999999999999
 10
1.8000000000000007
 20
51.84
 10
2.3000000000000007
 20
51.84
 10
2.3000000000000007
 20
52.75999999999999
  0
HATCH
  5
94
330
17
100
AcDbEntity
  8
BLINDING-GROUND-BEAMS-HATCH
 62
7
100
AcDbHatch
 10
0.0
 20
0.0
 30
0.0
210
0.0
220
0.0
230
1.0
  2
ANSI31
 70
0
 71
0
 91
1
 92
3
 72
0
 73
1
 93
4
 10
1.8000000000000007
 20
52.75999999999999
 10
1.8000000000000007
 20
51.84
 10
2.3000000000000007
 20
51.84
 10
2.3000000000000007
 20
52.75999999999999
 97
0
 75
1
 76
1
 52
0.0
 41
0.03
 77
0
 78
1
 53
45.0
 43
0.0
 44
0.0
 45
-0.0673519209
 46
0.0673519209
 79
0
 98
0
  0
LWPOLYLINE
  5
95
330
17
100
AcDbEntity
  8
BLINDING-GROUND-BEAMS
100
AcDbPolyline
 90
4
 70
1
 10
-14.159999999999997
 20
49.980000000000004
 10
-11.14
 20
49.980000000000004
 10
-11.14
 20
49.480000000000004
 10
-14.159999999999997
 20
49.480000000000004
  0
HATCH
  5
96
330
17
100
AcDbEntity
  8
BLINDING-GROUND-BEAMS-HATCH
 62
7
100
AcDbHatch
 10
0.0
 20
0.0
 30
0.0
210
0.0
220
0.0
230
1.0
  2
ANSI31
 70
0
 71
0
 91
1
 92
3
 72
0
 73
1
 93
4
 10
-14.159999999999997
 20
49.980000000000004
 10
-11.14
 20
49.980000000000004
 10
-11.14
 20
49.480000000000004
 10
-14.159999999999997
 20
49.480000000000004
 97
0
 75
1
 76
1
 52
0.0
 41
0.03
 77
0
 78
1
 53
45.0
 43
0.0
 44
0.0
 45
-0.0673519209
 46
0.0673519209
 79
0
 98
0
  0
LWPOLYLINE
  5
97
330
17
100
AcDbEntity
  8
BLINDING-GROUND-BEAMS
100
AcDbPolyline
 90
4
 70
1
 10
-7.060000000000002
 20
49.980000000000004
 10
0.060000000000002274
 20
49.980000000000004
 10
0.060000000000002274
 20
49.480000000000004
 10
-7.060000000000002
 20
49.480000000000004
  0
HATCH
  5
98
330
17
100
AcDbEntity
  8
BLINDING-GROUND-BEAMS-HATCH
 62
7
100
AcDbHatch
 10
0.0
 20
0.0
 30
0.0
210
0.0
220
0.0
230
1.0
  2
ANSI31
 70
0
 71
0
 91
1
 92
3
 72
0
 73
1
 93
4
 10
-7.060000000000002
 20
49.980000000000004
 10
0.060000000000002274
 20
49.980000000000004
 10
0.060000000000002274
 20
49.480000000000004
 10
-7.060000000000002
 20
49.480000000000004
 97
0
 75
1
 76
1
 52
0.0
 41
0.03
 77
0
 78
1
 53
45.0
 43
0.0
 44
0.0
 45
-0.0673519209
 46
0.0673519209
 79
0
 98
0
  0
LWPOLYLINE
  5
99
330
17
100
AcDbEntity
  8
BLINDING-GROUND-BEAMS
100
AcDbPolyline
 90
4
 70
1
 10
4.140000000000001
 20
49.980000000000004
 10
6.5
 20
49.980000000000004
 10
6.5
 20
49.480000000000004
 10
4.140000000000001
 20
49.480000000000004
  0
HATCH
  5
9A
330
17
100
AcDbEntity
  8
BLINDING-GROUND-BEAMS-HATCH
 62
7
100
AcDbHatch
 10
0.0
 20
0.0
 30
0.0
210
0.0
220
0.0
230
1.0
  2
ANSI31
 70
0
 71
0
 91
1
 92
3
 72
0
 73
1
 93
4
 10
4.140000000000001
 20
49.980000000000004
 10
6.5
 20
49.980000000000004
 10
6.5
 20
49.480000000000004
 10
4.140000000000001
 20
49.480000000000004
 97
0
 75
1
 76
1
 52
0.0
 41
0.03
 77
0
 78
1
 53
45.0
 43
0.0
 44
0.0
 45
-0.0673519209
 46
0.0673519209
 79
0
 98
0
  0
LWPOLYLINE
  5
9B
330
17
100
AcDbEntity
  8
BLINDING-GROUND-BEAMS
100
AcDbPolyline
 90
4
 70
1
 10
-18.43721554853999
 20
49.733685896660916
 10
-25.71539867807683
 20
48.96353814052706
 10
-25.662784451460013
 20
48.46631410333909
 10
-18.38460132192317
 20
49.23646185947294
  0
HATCH
  5
9C
330
17
100
AcDbEntity
  8
BLINDING-GROUND-BEAMS-HATCH
 62
7
100
AcDbHatch
 10
0.0
 20
0.0
 30
0.0
210
0.0
220
0.0
230
1.0
  2
ANSI31
 70
0
 71
0
 91
1
 92
3
 72
0
 73
1
 93
4
 10
-18.43721554853999
 20
49.733685896660916
 10
-25.71539867807683
 20
48.96353814052706
 10
-25.662784451460013
 20
48.46631410333909
 10
-18.38460132192317
 20
49.23646185947294
 97
0
 75
1
 76
1
 52
0.0
 41
0.03
 77
0
 78
1
 53
45.0
 43
0.0
 44
0.0
 45
-0.0673519209
 46
0.0673519209
 79
0
 98
0
  0
LWPOLYLINE
  5
9D
330
17
100
AcDbEntity
  8
BLINDING-GROUND-BEAMS
100
AcDbPolyline
 90
4
 70
1
 10
-9.399999999999999
 20
47.75999999999999
 10
-9.399999999999999
 20
46.5
 10
-8.899999999999999
 20
46.5
 10
-8.899999999999999
 20
47.75999999999999
  0
HATCH
  5
9E
330
17
100
AcDbEntity
  8
BLINDING-GROUND-BEAMS-HATCH
 62
7
100
AcDbHatch
 10
0.0
 20
0.0
 30
0.0
210
0.0
220
0.0
230
1.0
  2
ANSI31
 70
0
 71
0
 91
1
 92
3
 72
0
 73
1
 93
4
 10
-9.399999999999999
 20
47.75999999999999
 10
-9.399999999999999
 20
46.5
 10
-8.899999999999999
 20
46.5
 10
-8.899999999999999
 20
47.75999999999999
 97
0
 75
1
 76
1
 52
0.0
 41
0.03
 77
0
 78
1
 53
45.0
 43
0.0
 44
0.0
 45
-0.0673519209
 46
0.0673519209
 79
0
 98
0
  0
LWPOLYLINE
  5
9F
330
17
100
AcDbEntity
  8
BLINDING-GROUND-BEAMS
100
AcDbPolyline
 90
4
 70
1
 10
1.8000000000000007
 20
47.75999999999999
 10
1.8000000000000007
 20
46.5
 10
2.3000000000000007
 20
46.5
 10
2.3000000000000007
 20
47.75999999999999
  0
HATCH
  5
A0
330
17
100
AcDbEntity
  8
BLINDING-GROUND-BEAMS-HATCH
 62
7
100
AcDbHatch
 10
0.0
 20
0.0
 30
0.0
210
0.0
220
0.0
230
1.0
  2
ANSI31
 70
0
 71
0
 91
1
 92
3
 72
0
 73
1
 93
4
 10
1.8000000000000007
 20
47.75999999999999
 10
1.8000000000000007
 20
46.5
 10
2.3000000000000007
 20
46.5
 10
2.3000000000000007
 20
47.75999999999999
 97
0
 75
1
 76
1
 52
0.0
 41
0.03
 77
0
 78
1
 53
45.0
 43
0.0
 44
0.0
 45
-0.0673519209
 46
0.0673519209
 79
0
 98
0
  0
LWPOLYLINE
  5
A1
330
17
100
AcDbEntity
  8
BLINDING-GROUND-BEAMS
100
AcDbPolyline
 90
4
 70
1
 10
-16.6
 20
47.66
 10
-16.6
 20
46.099999999999994
 10
-16.1
 20
46.099999999999994
 10
-16.1
 20
47.66
  0
HATCH
  5
A2
330
17
100
AcDbEntity
  8
BLINDING-GROUND-BEAMS-HATCH
 62
7
100
AcDbHatch
 10
0.0
 20
0.0
 30
0.0
210
0.0
220
0.0
230
1.0
  2
ANSI31
 70
0
 71
0
 91
1
 92
3
 72
0
 73
1
 93
4
 10
-16.6
 20
47.66
 10
-16.6
 20
46.099999999999994
 10
-16.1
 20
46.099999999999994
 10
-16.1
 20
47.66
 97
0
 75
1
 76
1
 52
0.0
 41
0.03
 77
0
 78
1
 53
45.0
 43
0.0
 44
0.0
 45
-0.0673519209
 46
0.0673519209
 79
0
 98
0
  0
LWPOLYLINE
  5
A3
330
17
100
AcDbEntity
  8
BLINDING-GROUND-BEAMS
100
AcDbPolyline
 90
4
 70
1
 10
-34.78613280897674
 20
46.89725064888545
 10
-42.95686269878134
 20
43.99245988145278
 10
-42.78937617170251
 20
43.5213460276477
 10
-34.6186462818979
 20
46.426136795080374
  0
HATCH
  5
A4
330
17
100
AcDbEntity
  8
BLINDING-GROUND-BEAMS-HATCH
 62
7
100
AcDbHatch
 10
0.0
 20
0.0
 30
0.0
210
0.0
220
0.0
230
1.0
  2
ANSI31
 70
0
 71
0
 91
1
 92
3
 72
0
 73
1
 93
4
 10
-34.78613280897674
 20
46.89725064888545
 10
-42.95686269878134
 20
43.99245988145278
 10
-42.78937617170251
 20
43.5213460276477
 10
-34.6186462818979
 20
46.426136795080374
 97
0
 75
1
 76
1
 52
0.0
 41
0.03
 77
0
 78
1
 53
45.0
 43
0.0
 44
0.0
 45
-0.0673519209
 46
0.0673519209
 79
0
 98
0
  0
LWPOLYLINE
  5
A5
330
17
100
AcDbEntity
  8
BLINDING-GROUND-BEAMS
100
AcDbPolyline
 90
4
 70
1
 10
-28.694918636517006
 20
46.321693412515685
 10
-28.68490901337859
 20
42.98154360341684
 10
-29.184906768252976
 20
42.98004523077418
 10
-29.19491639139139
 20
46.32019503987303
  0
HATCH
  5
A6
330
17
100
AcDbEntity
  8
BLINDING-GROUND-BEAMS-HATCH
 62
7
100
AcDbHatch
 10
0.0
 20
0.0
 30
0.0
210
0.0
220
0.0
230
1.0
  2
ANSI31
 70
0
 71
0
 91
1
 92
3
 72
0
 73
1
 93
4
 10
-28.694918636517006
 20
46.321693412515685
 10
-28.68490901337859
 20
42.98154360341684
 10
-29.184906768252976
 20
42.98004523077418
 10
-29.19491639139139
 20
46.32019503987303
 97
0
 75
1
 76
1
 52
0.0
 41
0.03
 77
0
 78
1
 53
45.0
 43
0.0
 44
0.0
 45
-0.0673519209
 46
0.0673519209
 79
0
 98
0
  0
LWPOLYLINE
  5
A7
330
17
100
AcDbEntity
  8
BLINDING-GROUND-BEAMS
100
AcDbPolyline
 90
4
 70
1
 10
-13.659999999999997
 20
44.24
 10
-12.240000000000002
 20
44.24
 10
-12.240000000000002
 20
43.74
 10
-13.659999999999997
 20
43.74
  0
HATCH
  5
A8
330
17
100
AcDbEntity
  8
BLINDING-GROUND-BEAMS-HATCH
 62
7
100
AcDbHatch
 10
0.0
 20
0.0
 30
0.0
210
0.0
220
0.0
230
1.0
  2
ANSI31
 70
0
 71
0
 91
1
 92
3
 72
0
 73
1
 93
4
 10
-13.659999999999997
 20
44.24
 10
-12.240000000000002
 20
44.24
 10
-12.240000000000002
 20
43.74
 10
-13.659999999999997
 20
43.74
 97
0
 75
1
 76
1
 52
0.0
 41
0.03
 77
0
 78
1
 53
45.0
 43
0.0
 44
0.0
 45
-0.0673519209
 46
0.0673519209
 79
0
 98
0
  0
LWPOLYLINE
  5
A9
330
17
100
AcDbEntity
  8
BLINDING-GROUND-BEAMS
100
AcDbPolyline
 90
4
 70
1
 10
-5.960000000000001
 20
44.239999999999995
 10
-1.0399999999999991
 20
44.239999999999995
 10
-1.0399999999999991
 20
43.739999999999995
 10
-5.960000000000001
 20
43.739999999999995
  0
HATCH
  5
AA
330
17
100
AcDbEntity
  8
BLINDING-GROUND-BEAMS-HATCH
 62
7
100
AcDbHatch
 10
0.0
 20
0.0
 30
0.0
210
0.0
220
0.0
230
1.0
  2
ANSI31
 70
0
 71
0
 91
1
 92
3
 72
0
 73
1
 93
4
 10
-5.960000000000001
 20
44.239999999999995
 10
-1.0399999999999991
 20
44.239999999999995
 10
-1.0399999999999991
 20
43.739999999999995
 10
-5.960000000000001
 20
43.739999999999995
 97
0
 75
1
 76
1
 52
0.0
 41
0.03
 77
0
 78
1
 53
45.0
 43
0.0
 44
0.0
 45
-0.0673519209
 46
0.0673519209
 79
0
 98
0
  0
LWPOLYLINE
  5
AB
330
17
100
AcDbEntity
  8
BLINDING-GROUND-BEAMS
100
AcDbPolyline
 90
4
 70
1
 10
5.240000000000002
 20
44.239999999999995
 10
5.899999999999999
 20
44.239999999999995
 10
5.899999999999999
 20
43.739999999999995
 10
5.240000000000002
 20
43.739999999999995
  0
HATCH
  5
AC
330
17
100
AcDbEntity
  8
BLINDING-GROUND-BEAMS-HATCH
 62
7
100
AcDbHatch
 10
0.0
 20
0.0
 30
0.0
210
0.0
220
0.0
230
1.0
  2
ANSI31
 70
0
 71
0
 91
1
 92
3
 72
0
 73
1
 93
4
 10
5.240000000000002
 20
44.239999999999995
 10
5.899999999999999
 20
44.239999999999995
 10
5.899999999999999
 20
43.739999999999995
 10
5.240000000000002
 20
43.739999999999995
 97
0
 75
1
 76
1
 52
0.0
 41
0.03
 77
0
 78
1
 53
45.0
 43
0.0
 44
0.0
 45
-0.0673519209
 46
0.0673519209
 79
0
 98
0
  0
LWPOLYLINE
  5
AD
330
17
100
AcDbEntity
  8
BLINDING-GROUND-BEAMS
100
AcDbPolyline
 90
4
 70
1
 10
12.68
 20
44.239999999999995
 10
14.439999999999998
 20
44.239999999999995
 10
14.439999999999998
 20
43.739999999999995
 10
12.68
 20
43.739999999999995
  0
HATCH
  5
AE
330
17
100
AcDbEntity
  8
BLINDING-GROUND-BEAMS-HATCH
 62
7
100
AcDbHatch
 10
0.0
 20
0.0
 30
0.0
210
0.0
220
0.0
230
1.0
  2
ANSI31
 70
0
 71
0
 91
1
 92
3
 72
0
 73
1
 93
4
 10
12.68
 20
44.239999999999995
 10
14.439999999999998
 20
44.239999999999995
 10
14.439999999999998
 20
43.739999999999995
 10
12.68
 20
43.739999999999995
 97
0
 75
1
 76
1
 52
0.0
 41
0.03
 77
0
 78
1
 53
45.0
 43
0.0
 44
0.0
 45
-0.0673519209
 46
0.0673519209
 79
0
 98
0
  0
LWPOLYLINE
  5
AF
330
17
100
AcDbEntity
  8
BLINDING-GROUND-BEAMS
100
AcDbPolyline
 90
4
 70
1
 10
20.300070416566477
 20
44.243290821602145
 10
15.379506815028105
 20
44.23718089012803
 10
15.380127671423693
 20
43.73718127559084
 10
20.300691272962062
 20
43.743291207064956
  0
HATCH
  5
B0
330
17
100
AcDbEntity
  8
BLINDING-GROUND-BEAMS-HATCH
 62
7
100
AcDbHatch
 10
0.0
 20
0.0
 30
0.0
210
0.0
220
0.0
230
1.0
  2
ANSI31
 70
0
 71
0
 91
1
 92
3
 72
0
 73
1
 93
4
 10
20.300070416566477
 20
44.243290821602145
 10
15.379506815028105
 20
44.23718089012803
 10
15.380127671423693
 20
43.73718127559084
 10
20.300691272962062
 20
43.743291207064956
 97
0
 75
1
 76
1
 52
0.0
 41
0.03
 77
0
 78
1
 53
45.0
 43
0.0
 44
0.0
 45
-0.0673519209
 46
0.0673519209
 79
0
 98
0
  0
LWPOLYLINE
  5
B1
330
17
100
AcDbEntity
  8
BLINDING-GROUND-BEAMS
100
AcDbPolyline
 90
4
 70
1
 10
-31.720497858763906
 20
39.784196210304884
 10
-40.21999585629287
 20
39.775803545940505
 10
-40.21950214123609
 20
39.27580378969512
 10
-31.72000414370713
 20
39.2841964540595
  0
HATCH
  5
B2
330
17
100
AcDbEntity
  8
BLINDING-GROUND-BEAMS-HATCH
 62
7
100
AcDbHatch
 10
0.0
 20
0.0
 30
0.0
210
0.0
220
0.0
230
1.0
  2
ANSI31
 70
0
 71
0
 91
1
 92
3
 72
0
 73
1
 93
4
 10
-31.720497858763906
 20
39.784196210304884
 10
-40.21999585629287
 20
39.775803545940505
 10
-40.21950214123609
 20
39.27580378969512
 10
-31.72000414370713
 20
39.2841964540595
 97
0
 75
1
 76
1
 52
0.0
 41
0.03
 77
0
 78
1
 53
45.0
 43
0.0
 44
0.0
 45
-0.0673519209
 46
0.0673519209
 79
0
 98
0
  0
LWPOLYLINE
  5
B3
330
17
100
AcDbEntity
  8
BLINDING-GROUND-BEAMS
100
AcDbPolyline
 90
4
 70
1
 10
-18.9399608111946
 20
39.78221785198579
 10
-26.119998201527398
 20
39.77734823225562
 10
-26.119659093362255
 20
39.27734834724998
 10
-18.939621703029456
 20
39.282217966980156
  0
HATCH
  5
B4
330
17
100
AcDbEntity
  8
BLINDING-GROUND-BEAMS-HATCH
 62
7
100
AcDbHatch
 10
0.0
 20
0.0
 30
0.0
210
0.0
220
0.0
230
1.0
  2
ANSI31
 70
0
 71
0
 91
1
 92
3
 72
0
 73
1
 93
4
 10
-18.9399608111946
 20
39.78221785198579
 10
-26.119998201527398
 20
39.77734823225562
 10
-26.119659093362255
 20
39.27734834724998
 10
-18.939621703029456
 20
39.282217966980156
 97
0
 75
1
 76
1
 52
0.0
 41
0.03
 77
0
 78
1
 53
45.0
 43
0.0
 44
0.0
 45
-0.0673519209
 46
0.0673519209
 79
0
 98
0
  0
LWPOLYLINE
  5
B5
330
17
100
AcDbEntity
  8
BLINDING-GROUND-BEAMS
100
AcDbPolyline
 90
4
 70
1
 10
-13.659999999999997
 20
39.78
 10
-12.240000000000002
 20
39.78
 10
-12.240000000000002
 20
39.28
 10
-13.659999999999997
 20
39.28
  0
HATCH
  5
B6
330
17
100
AcDbEntity
  8
BLINDING-GROUND-BEAMS-HATCH
 62
7
100
AcDbHatch
 10
0.0
 20
0.0
 30
0.0
210
0.0
220
0.0
230
1.0
  2
ANSI31
 70
0
 71
0
 91
1
 92
3
 72
0
 73
1
 93
4
 10
-13.659999999999997
 20
39.78
 10
-12.240000000000002
 20
39.78
 10
-12.240000000000002
 20
39.28
 10
-13.659999999999997
 20
39.28
 97
0
 75
1
 76
1
 52
0.0
 41
0.03
 77
0
 78
1
 53
45.0
 43
0.0
 44
0.0
 45
-0.0673519209
 46
0.0673519209
 79
0
 98
0
  0
LWPOLYLINE
  5
B7
330
17
100
AcDbEntity
  8
BLINDING-GROUND-BEAMS
100
AcDbPolyline
 90
4
 70
1
 10
-5.960000000000001
 20
39.78
 10
-1.0399999999999991
 20
39.78
 10
-1.0399999999999991
 20
39.28
 10
-5.960000000000001
 20
39.28
  0
HATCH
  5
B8
330
17
100
AcDbEntity
  8
BLINDING-GROUND-BEAMS-HATCH
 62
7
100
AcDbHatch
 10
0.0
 20
0.0
 30
0.0
210
0.0
220
0.0
230
1.0
  2
ANSI31
 70
0
 71
0
 91
1
 92
3
 72
0
 73
1
 93
4
 10
-5.960000000000001
 20
39.78
 10
-1.0399999999999991
 20
39.78
 10
-1.0399999999999991
 20
39.28
 10
-5.960000000000001
 20
39.28
 97
0
 75
1
 76
1
 52
0.0
 41
0.03
 77
0
 78
1
 53
45.0
 43
0.0
 44
0.0
 45
-0.0673519209
 46
0.0673519209
 79
0
 98
0
  0
LWPOLYLINE
  5
B9
330
17
100
AcDbEntity
  8
BLINDING-GROUND-BEAMS
100
AcDbPolyline
 90
4
 70
1
 10
5.240000000000002
 20
39.78
 10
5.899999999999999
 20
39.78
 10
5.899999999999999
 20
39.28
 10
5.240000000000002
 20
39.28
  0
HATCH
  5
BA
330
17
100
AcDbEntity
  8
BLINDING-GROUND-BEAMS-HATCH
 62
7
100
AcDbHatch
 10
0.0
 20
0.0
 30
0.0
210
0.0
220
0.0
230
1.0
  2
ANSI31
 70
0
 71
0
 91
1
 92
3
 72
0
 73
1
 93
4
 10
5.240000000000002
 20
39.78
 10
5.899999999999999
 20
39.78
 10
5.899999999999999
 20
39.28
 10
5.240000000000002
 20
39.28
 97
0
 75
1
 76
1
 52
0.0
 41
0.03
 77
0
 78
1
 53
45.0
 43
0.0
 44
0.0
 45
-0.0673519209
 46
0.0673519209
 79
0
 98
0
  0
LWPOLYLINE
  5
BB
330
17
100
AcDbEntity
  8
BLINDING-GROUND-BEAMS
100
AcDbPolyline
 90
4
 70
1
 10
12.68
 20
39.78
 10
14.439999999999998
 20
39.78
 10
14.439999999999998
 20
39.28
 10
12.68
 20
39.28
  0
HATCH
  5
BC
330
17
100
AcDbEntity
  8
BLINDING-GROUND-BEAMS-HATCH
 62
7
100
AcDbHatch
 10
0.0
 20
0.0
 30
0.0
210
0.0
220
0.0
230
1.0
  2
ANSI31
 70
0
 71
0
 91
1
 92
3
 72
0
 73
1
 93
4
 10
12.68
 20
39.78
 10
14.439999999999998
 20
39.78
 10
14.439999999999998
 20
39.28
 10
12.68
 20
39.28
 97
0
 75
1
 76
1
 52
0.0
 41
0.03
 77
0
 78
1
 53
45.0
 43
0.0
 44
0.0
 45
-0.0673519209
 46
0.0673519209
 79
0
 98
0
  0
LWPOLYLINE
  5
BD
330
17
100
AcDbEntity
  8
BLINDING-GROUND-BEAMS
100
AcDbPolyline
 90
4
 70
1
 10
18.160202995914084
 20
39.78593488050599
 10
15.378515068928449
 20
39.77549059981757
 10
15.380392383592158
 20
39.27549412414034
 10
18.162080310577792
 20
39.285938404828755
  0
HATCH
  5
BE
330
17
100
AcDbEntity
  8
BLINDING-GROUND-BEAMS-HATCH
 62
7
100
AcDbHatch
 10
0.0
 20
0.0
 30
0.0
210
0.0
220
0.0
230
1.0
  2
ANSI31
 70
0
 71
0
 91
1
 92
3
 72
0
 73
1
 93
4
 10
18.160202995914084
 20
39.78593488050599
 10
15.378515068928449
 20
39.77549059981757
 10
15.380392383592158
 20
39.27549412414034
 10
18.162080310577792
 20
39.285938404828755
 97
0
 75
1
 76
1
 52
0.0
 41
0.03
 77
0
 78
1
 53
45.0
 43
0.0
 44
0.0
 45
-0.0673519209
 46
0.0673519209
 79
0
 98
0
  0
LWPOLYLINE
  5
BF
330
17
100
AcDbEntity
  8
BLINDING-GROUND-BEAMS
100
AcDbPolyline
 90
4
 70
1
 10
-16.599999999999998
 20
37.06
 10
-16.599999999999998
 20
33.2
 10
-16.099999999999998
 20
33.2
 10
-16.099999999999998
 20
37.06
  0
HATCH
  5
C0
330
17
100
AcDbEntity
  8
BLINDING-GROUND-BEAMS-HATCH
 62
7
100
AcDbHatch
 10
0.0
 20
0.0
 30
0.0
210
0.0
220
0.0
230
1.0
  2
ANSI31
 70
0
 71
0
 91
1
 92
3
 72
0
 73
1
 93
4
 10
-16.599999999999998
 20
37.06
 10
-16.599999999999998
 20
33.2
 10
-16.099999999999998
 20
33.2
 10
-16.099999999999998
 20
37.06
 97
0
 75
1
 76
1
 52
0.0
 41
0.03
 77
0
 78
1
 53
45.0
 43
0.0
 44
0.0
 45
-0.0673519209
 46
0.0673519209
 79
0
 98
0
  0
LWPOLYLINE
  5
C1
330
17
100
AcDbEntity
  8
BLINDING-GROUND-BEAMS
100
AcDbPolyline
 90
4
 70
1
 10
-9.400000000000002
 20
36.86
 10
-9.400000000000002
 20
33.89999999999999
 10
-8.900000000000002
 20
33.89999999999999
 10
-8.900000000000002
 20
36.86
  0
HATCH
  5
C2
330
17
100
AcDbEntity
  8
BLINDING-GROUND-BEAMS-HATCH
 62
7
100
AcDbHatch
 10
0.0
 20
0.0
 30
0.0
210
0.0
220
0.0
230
1.0
  2
ANSI31
 70
0
 71
0
 91
1
 92
3
 72
0
 73
1
 93
4
 10
-9.400000000000002
 20
36.86
 10
-9.400000000000002
 20
33.89999999999999
 10
-8.900000000000002
 20
33.89999999999999
 10
-8.900000000000002
 20
36.86
 97
0
 75
1
 76
1
 52
0.0
 41
0.03
 77
0
 78
1
 53
45.0
 43
0.0
 44
0.0
 45
-0.0673519209
 46
0.0673519209
 79
0
 98
0
  0
LWPOLYLINE
  5
C3
330
17
100
AcDbEntity
  8
BLINDING-GROUND-BEAMS
100
AcDbPolyline
 90
4
 70
1
 10
1.8000000000000007
 20
36.86
 10
1.8000000000000007
 20
33.64
 10
2.3000000000000007
 20
33.64
 10
2.3000000000000007
 20
36.86
  0
HATCH
  5
C4
330
17
100
AcDbEntity
  8
BLINDING-GROUND-BEAMS-HATCH
 62
7
100
AcDbHatch
 10
0.0
 20
0.0
 30
0.0
210
0.0
220
0.0
230
1.0
  2
ANSI31
 70
0
 71
0
 91
1
 92
3
 72
0
 73
1
 93
4
 10
1.8000000000000007
 20
36.86
 10
1.8000000000000007
 20
33.64
 10
2.3000000000000007
 20
33.64
 10
2.3000000000000007
 20
36.86
 97
0
 75
1
 76
1
 52
0.0
 41
0.03
 77
0
 78
1
 53
45.0
 43
0.0
 44
0.0
 45
-0.0673519209
 46
0.0673519209
 79
0
 98
0
  0
LWPOLYLINE
  5
C5
330
17
100
AcDbEntity
  8
BLINDING-GROUND-BEAMS
100
AcDbPolyline
 90
4
 70
1
 10
-28.8405096558089
 20
30.78424468340354
 10
-37.23999570950812
 20
30.775755061202293
 10
-37.2394903441911
 20
30.275755316596463
 10
-28.84000429049187
 20
30.28424493879771
  0
HATCH
  5
C6
330
17
100
AcDbEntity
  8
BLINDING-GROUND-BEAMS-HATCH
 62
7
100
AcDbHatch
 10
0.0
 20
0.0
 30
0.0
210
0.0
220
0.0
230
1.0
  2
ANSI31
 70
0
 71
0
 91
1
 92
3
 72
0
 73
1
 93
4
 10
-28.8405096558089
 20
30.78424468340354
 10
-37.23999570950812
 20
30.775755061202293
 10
-37.2394903441911
 20
30.275755316596463
 10
-28.84000429049187
 20
30.28424493879771
 97
0
 75
1
 76
1
 52
0.0
 41
0.03
 77
0
 78
1
 53
45.0
 43
0.0
 44
0.0
 45
-0.0673519209
 46
0.0673519209
 79
0
 98
0
  0
LWPOLYLINE
  5
C7
330
17
100
AcDbEntity
  8
BLINDING-GROUND-BEAMS
100
AcDbPolyline
 90
4
 70
1
 10
-18.99988172797414
 20
30.77738633554015
 10
-23.23997993429969
 20
30.769377141237058
 10
-23.23903547739976
 20
30.26937803323669
 10
-18.99893727107421
 20
30.277387227539784
  0
HATCH
  5
C8
330
17
100
AcDbEntity
  8
BLINDING-GROUND-BEAMS-HATCH
 62
7
100
AcDbHatch
 10
0.0
 20
0.0
 30
0.0
210
0.0
220
0.0
230
1.0
  2
ANSI31
 70
0
 71
0
 91
1
 92
3
 72
0
 73
1
 93
4
 10
-18.99988172797414
 20
30.77738633554015
 10
-23.23997993429969
 20
30.769377141237058
 10
-23.23903547739976
 20
30.26937803323669
 10
-18.99893727107421
 20
30.277387227539784
 97
0
 75
1
 76
1
 52
0.0
 41
0.03
 77
0
 78
1
 53
45.0
 43
0.0
 44
0.0
 45
-0.0673519209
 46
0.0673519209
 79
0
 98
0
  0
LWPOLYLINE
  5
C9
330
17
100
AcDbEntity
  8
BLINDING-GROUND-BEAMS
100
AcDbPolyline
 90
4
 70
1
 10
-13.619999999999997
 20
30.78
 10
-12.5
 20
30.78
 10
-12.5
 20
30.28
 10
-13.619999999999997
 20
30.28
  0
HATCH
  5
CA
330
17
100
AcDbEntity
  8
BLINDING-GROUND-BEAMS-HATCH
 62
7
100
AcDbHatch
 10
0.0
 20
0.0
 30
0.0
210
0.0
220
0.0
230
1.0
  2
ANSI31
 70
0
 71
0
 91
1
 92
3
 72
0
 73
1
 93
4
 10
-13.619999999999997
 20
30.78
 10
-12.5
 20
30.78
 10
-12.5
 20
30.28
 10
-13.619999999999997
 20
30.28
 97
0
 75
1
 76
1
 52
0.0
 41
0.03
 77
0
 78
1
 53
45.0
 43
0.0
 44
0.0
 45
-0.0673519209
 46
0.0673519209
 79
0
 98
0
  0
LWPOLYLINE
  5
CB
330
17
100
AcDbEntity
  8
BLINDING-GROUND-BEAMS
100
AcDbPolyline
 90
4
 70
1
 10
-5.719999999999999
 20
30.78
 10
-1.0399999999999991
 20
30.78
 10
-1.0399999999999991
 20
30.28
 10
-5.719999999999999
 20
30.28
  0
HATCH
  5
CC
330
17
100
AcDbEntity
  8
BLINDING-GROUND-BEAMS-HATCH
 62
7
100
AcDbHatch
 10
0.0
 20
0.0
 30
0.0
210
0.0
220
0.0
230
1.0
  2
ANSI31
 70
0
 71
0
 91
1
 92
3
 72
0
 73
1
 93
4
 10
-5.719999999999999
 20
30.78
 10
-1.0399999999999991
 20
30.78
 10
-1.0399999999999991
 20
30.28
 10
-5.719999999999999
 20
30.28
 97
0
 75
1
 76
1
 52
0.0
 41
0.03
 77
0
 78
1
 53
45.0
 43
0.0
 44
0.0
 45
-0.0673519209
 46
0.0673519209
 79
0
 98
0
  0
LWPOLYLINE
  5
CD
330
17
100
AcDbEntity
  8
BLINDING-GROUND-BEAMS
100
AcDbPolyline
 90
4
 70
1
 10
5.240000000000002
 20
30.78
 10
6.160000000000004
 20
30.78
 10
6.160000000000004
 20
30.28
 10
5.240000000000002
 20
30.28
  0
HATCH
  5
CE
330
17
100
AcDbEntity
  8
BLINDING-GROUND-BEAMS-HATCH
 62
7
100
AcDbHatch
 10
0.0
 20
0.0
 30
0.0
210
0.0
220
0.0
230
1.0
  2
ANSI31
 70
0
 71
0
 91
1
 92
3
 72
0
 73
1
 93
4
 10
5.240000000000002
 20
30.78
 10
6.160000000000004
 20
30.78
 10
6.160000000000004
 20
30.28
 10
5.240000000000002
 20
30.28
 97
0
 75
1
 76
1
 52
0.0
 41
0.03
 77
0
 78
1
 53
45.0
 43
0.0
 44
0.0
 45
-0.0673519209
 46
0.0673519209
 79
0
 98
0
  0
LWPOLYLINE
  5
CF
330
17
100
AcDbEntity
  8
BLINDING-GROUND-BEAMS
100
AcDbPolyline
 90
4
 70
1
 10
12.440000000000005
 20
30.78
 10
14.439999999999998
 20
30.78
 10
14.439999999999998
 20
30.28
 10
12.440000000000005
 20
30.28
  0
HATCH
  5
D0
330
17
100
AcDbEntity
  8
BLINDING-GROUND-BEAMS-HATCH
 62
7
100
AcDbHatch
 10
0.0
 20
0.0
 30
0.0
210
0.0
220
0.0
230
1.0
  2
ANSI31
 70
0
 71
0
 91
1
 92
3
 72
0
 73
1
 93
4
 10
12.440000000000005
 20
30.78
 10
14.439999999999998
 20
30.78
 10
14.439999999999998
 20
30.28
 10
12.440000000000005
 20
30.28
 97
0
 75
1
 76
1
 52
0.0
 41
0.03
 77
0
 78
1
 53
45.0
 43
0.0
 44
0.0
 45
-0.0673519209
 46
0.0673519209
 79
0
 98
0
  0
LWPOLYLINE
  5
D1
330
17
100
AcDbEntity
  8
BLINDING-GROUND-BEAMS
100
AcDbPolyline
 90
4
 70
1
 10
17.96023244243231
 20
30.786424480660546
 10
15.37828529016554
 20
30.775222459969793
 10
15.380454566800879
 20
30.275227165753055
 10
17.962401719067653
 20
30.286429186443808
  0
HATCH
  5
D2
330
17
100
AcDbEntity
  8
BLINDING-GROUND-BEAMS-HATCH
 62
7
100
AcDbHatch
 10
0.0
 20
0.0
 30
0.0
210
0.0
220
0.0
230
1.0
  2
ANSI31
 70
0
 71
0
 91
1
 92
3
 72
0
 73
1
 93
4
 10
17.96023244243231
 20
30.786424480660546
 10
15.37828529016554
 20
30.775222459969793
 10
15.380454566800879
 20
30.275227165753055
 10
17.962401719067653
 20
30.286429186443808
 97
0
 75
1
 76
1
 52
0.0
 41
0.03
 77
0
 78
1
 53
45.0
 43
0.0
 44
0.0
 45
-0.0673519209
 46
0.0673519209
 79
0
 98
0
  0
LWPOLYLINE
  5
D3
330
17
100
AcDbEntity
  8
BLINDING-GROUND-BEAMS
100
AcDbPolyline
 90
4
 70
1
 10
-16.599999999999998
 20
27.82
 10
-16.599999999999998
 20
24.199999999999996
 10
-16.099999999999998
 20
24.199999999999996
 10
-16.099999999999998
 20
27.82
  0
HATCH
  5
D4
330
17
100
AcDbEntity
  8
BLINDING-GROUND-BEAMS-HATCH
 62
7
100
AcDbHatch
 10
0.0
 20
0.0
 30
0.0
210
0.0
220
0.0
230
1.0
  2
ANSI31
 70
0
 71
0
 91
1
 92
3
 72
0
 73
1
 93
4
 10
-16.599999999999998
 20
27.82
 10
-16.599999999999998
 20
24.199999999999996
 10
-16.099999999999998
 20
24.199999999999996
 10
-16.099999999999998
 20
27.82
 97
0
 75
1
 76
1
 52
0.0
 41
0.03
 77
0
 78
1
 53
45.0
 43
0.0
 44
0.0
 45
-0.0673519209
 46
0.0673519209
 79
0
 98
0
  0
LWPOLYLINE
  5
D5
330
17
100
AcDbEntity
  8
BLINDING-GROUND-BEAMS
100
AcDbPolyline
 90
4
 70
1
 10
1.8000000000000007
 20
27.36
 10
1.8000000000000007
 20
24.9
 10
2.3000000000000007
 20
24.9
 10
2.3000000000000007
 20
27.36
  0
HATCH
  5
D6
330
17
100
AcDbEntity
  8
BLINDING-GROUND-BEAMS-HATCH
 62
7
100
AcDbHatch
 10
0.0
 20
0.0
 30
0.0
210
0.0
220
0.0
230
1.0
  2
ANSI31
 70
0
 71
0
 91
1
 92
3
 72
0
 73
1
 93
4
 10
1.8000000000000007
 20
27.36
 10
1.8000000000000007
 20
24.9
 10
2.3000000000000007
 20
24.9
 10
2.3000000000000007
 20
27.36
 97
0
 75
1
 76
1
 52
0.0
 41
0.03
 77
0
 78
1
 53
45.0
 43
0.0
 44
0.0
 45
-0.0673519209
 46
0.0673519209
 79
0
 98
0
  0
LWPOLYLINE
  5
D7
330
17
100
AcDbEntity
  8
BLINDING-GROUND-BEAMS
100
AcDbPolyline
 90
4
 70
1
 10
-9.399999999999999
 20
27.119999999999997
 10
-9.399999999999999
 20
25.0
 10
-8.899999999999999
 20
25.0
 10
-8.899999999999999
 20
27.119999999999997
  0
HATCH
  5
D8
330
17
100
AcDbEntity
  8
BLINDING-GROUND-BEAMS-HATCH
 62
7
100
AcDbHatch
 10
0.0
 20
0.0
 30
0.0
210
0.0
220
0.0
230
1.0
  2
ANSI31
 70
0
 71
0
 91
1
 92
3
 72
0
 73
1
 93
4
 10
-9.399999999999999
 20
27.119999999999997
 10
-9.399999999999999
 20
25.0
 10
-8.899999999999999
 20
25.0
 10
-8.899999999999999
 20
27.119999999999997
 97
0
 75
1
 76
1
 52
0.0
 41
0.03
 77
0
 78
1
 53
45.0
 43
0.0
 44
0.0
 45
-0.0673519209
 46
0.0673519209
 79
0
 98
0
  0
LWPOLYLINE
  5
D9
330
17
100
AcDbEntity
  8
BLINDING-GROUND-BEAMS
100
AcDbPolyline
 90
4
 70
1
 10
-25.96052437495485
 20
21.784304356037225
 10
-34.23999552405564
 20
21.775695373667723
 10
-34.23947562504515
 20
21.275695643962777
 10
-25.96000447594436
 20
21.28430462633228
  0
HATCH
  5
DA
330
17
100
AcDbEntity
  8
BLINDING-GROUND-BEAMS-HATCH
 62
7
100
AcDbHatch
 10
0.0
 20
0.0
 30
0.0
210
0.0
220
0.0
230
1.0
  2
ANSI31
 70
0
 71
0
 91
1
 92
3
 72
0
 73
1
 93
4
 10
-25.96052437495485
 20
21.784304356037225
 10
-34.23999552405564
 20
21.775695373667723
 10
-34.23947562504515
 20
21.275695643962777
 10
-25.96000447594436
 20
21.28430462633228
 97
0
 75
1
 76
1
 52
0.0
 41
0.03
 77
0
 78
1
 53
45.0
 43
0.0
 44
0.0
 45
-0.0673519209
 46
0.0673519209
 79
0
 98
0
  0
LWPOLYLINE
  5
DB
330
17
100
AcDbEntity
  8
BLINDING-GROUND-BEAMS
100
AcDbPolyline
 90
4
 70
1
 10
-18.998819131730063
 20
21.773347807002345
 10
-20.359455057350186
 20
21.749241596550057
 10
-20.35059801206356
 20
21.249320049956204
 10
-18.989962086443438
 20
21.273426260408492
  0
HATCH
  5
DC
330
17
100
AcDbEntity
  8
BLINDING-GROUND-BEAMS-HATCH
 62
7
100
AcDbHatch
 10
0.0
 20
0.0
 30
0.0
210
0.0
220
0.0
230
1.0
  2
ANSI31
 70
0
 71
0
 91
1
 92
3
 72
0
 73
1
 93
4
 10
-18.998819131730063
 20
21.773347807002345
 10
-20.359455057350186
 20
21.749241596550057
 10
-20.35059801206356
 20
21.249320049956204
 10
-18.989962086443438
 20
21.273426260408492
 97
0
 75
1
 76
1
 52
0.0
 41
0.03
 77
0
 78
1
 53
45.0
 43
0.0
 44
0.0
 45
-0.0673519209
 46
0.0673519209
 79
0
 98
0
  0
LWPOLYLINE
  5
DD
330
17
100
AcDbEntity
  8
BLINDING-GROUND-BEAMS
100
AcDbPolyline
 90
4
 70
1
 10
-13.619999999999997
 20
21.78
 10
-12.600000000000001
 20
21.78
 10
-12.600000000000001
 20
21.28
 10
-13.619999999999997
 20
21.28
  0
HATCH
  5
DE
330
17
100
AcDbEntity
  8
BLINDING-GROUND-BEAMS-HATCH
 62
7
100
AcDbHatch
 10
0.0
 20
0.0
 30
0.0
210
0.0
220
0.0
230
1.0
  2
ANSI31
 70
0
 71
0
 91
1
 92
3
 72
0
 73
1
 93
4
 10
-13.619999999999997
 20
21.78
 10
-12.600000000000001
 20
21.78
 10
-12.600000000000001
 20
21.28
 10
-13.619999999999997
 20
21.28
 97
0
 75
1
 76
1
 52
0.0
 41
0.03
 77
0
 78
1
 53
45.0
 43
0.0
 44
0.0
 45
-0.0673519209
 46
0.0673519209
 79
0
 98
0
  0
LWPOLYLINE
  5
DF
330
17
100
AcDbEntity
  8
BLINDING-GROUND-BEAMS
100
AcDbPolyline
 90
4
 70
1
 10
-5.619999999999997
 20
21.779999999999998
 10
-1.2999999999999972
 20
21.779999999999998
 10
-1.2999999999999972
 20
21.279999999999998
 10
-5.619999999999997
 20
21.279999999999998
  0
HATCH
  5
E0
330
17
100
AcDbEntity
  8
BLINDING-GROUND-BEAMS-HATCH
 62
7
100
AcDbHatch
 10
0.0
 20
0.0
 30
0.0
210
0.0
220
0.0
230
1.0
  2
ANSI31
 70
0
 71
0
 91
1
 92
3
 72
0
 73
1
 93
4
 10
-5.619999999999997
 20
21.779999999999998
 10
-1.2999999999999972
 20
21.779999999999998
 10
-1.2999999999999972
 20
21.279999999999998
 10
-5.619999999999997
 20
21.279999999999998
 97
0
 75
1
 76
1
 52
0.0
 41
0.03
 77
0
 78
1
 53
45.0
 43
0.0
 44
0.0
 45
-0.0673519209
 46
0.0673519209
 79
0
 98
0
  0
LWPOLYLINE
  5
E1
330
17
100
AcDbEntity
  8
BLINDING-GROUND-BEAMS
100
AcDbPolyline
 90
4
 70
1
 10
5.480000000000004
 20
21.779999999999998
 10
6.160000000000004
 20
21.779999999999998
 10
6.160000000000004
 20
21.279999999999998
 10
5.480000000000004
 20
21.279999999999998
  0
HATCH
  5
E2
330
17
100
AcDbEntity
  8
BLINDING-GROUND-BEAMS-HATCH
 62
7
100
AcDbHatch
 10
0.0
 20
0.0
 30
0.0
210
0.0
220
0.0
230
1.0
  2
ANSI31
 70
0
 71
0
 91
1
 92
3
 72
0
 73
1
 93
4
 10
5.480000000000004
 20
21.779999999999998
 10
6.160000000000004
 20
21.779999999999998
 10
6.160000000000004
 20
21.279999999999998
 10
5.480000000000004
 20
21.279999999999998
 97
0
 75
1
 76
1
 52
0.0
 41
0.03
 77
0
 78
1
 53
45.0
 43
0.0
 44
0.0
 45
-0.0673519209
 46
0.0673519209
 79
0
 98
0
  0
LWPOLYLINE
  5
E3
330
17
100
AcDbEntity
  8
BLINDING-GROUND-BEAMS
100
AcDbPolyline
 90
4
 70
1
 10
12.440000000000005
 20
21.779999999999998
 10
14.439999999999998
 20
21.779999999999998
 10
14.439999999999998
 20
21.279999999999998
 10
12.440000000000005
 20
21.279999999999998
  0
HATCH
  5
E4
330
17
100
AcDbEntity
  8
BLINDING-GROUND-BEAMS-HATCH
 62
7
100
AcDbHatch
 10
0.0
 20
0.0
 30
0.0
210
0.0
220
0.0
230
1.0
  2
ANSI31
 70
0
 71
0
 91
1
 92
3
 72
0
 73
1
 93
4
 10
12.440000000000005
 20
21.779999999999998
 10
14.439999999999998
 20
21.779999999999998
 10
14.439999999999998
 20
21.279999999999998
 10
12.440000000000005
 20
21.279999999999998
 97
0
 75
1
 76
1
 52
0.0
 41
0.03
 77
0
 78
1
 53
45.0
 43
0.0
 44
0.0
 45
-0.0673519209
 46
0.0673519209
 79
0
 98
0
  0
LWPOLYLINE
  5
E5
330
17
100
AcDbEntity
  8
BLINDING-GROUND-BEAMS
100
AcDbPolyline
 90
4
 70
1
 10
17.820257069892325
 20
21.78682005102423
 10
15.37809051361219
 20
21.775014708865292
 10
15.380507466747947
 20
21.275020550561877
 10
17.822674023028082
 20
21.286825892720813
  0
HATCH
  5
E6
330
17
100
AcDbEntity
  8
BLINDING-GROUND-BEAMS-HATCH
 62
7
100
AcDbHatch
 10
0.0
 20
0.0
 30
0.0
210
0.0
220
0.0
230
1.0
  2
ANSI31
 70
0
 71
0
 91
1
 92
3
 72
0
 73
1
 93
4
 10
17.820257069892325
 20
21.78682005102423
 10
15.37809051361219
 20
21.775014708865292
 10
15.380507466747947
 20
21.275020550561877
 10
17.822674023028082
 20
21.286825892720813
 97
0
 75
1
 76
1
 52
0.0
 41
0.03
 77
0
 78
1
 53
45.0
 43
0.0
 44
0.0
 45
-0.0673519209
 46
0.0673519209
 79
0
 98
0
  0
LWPOLYLINE
  5
E7
330
17
100
AcDbEntity
  8
BLINDING-GROUND-BEAMS
100
AcDbPolyline
 90
4
 70
1
 10
20.505363303832894
 20
19.22117200583769
 10
20.297095060211305
 20
16.620196050679414
 10
19.79869031894048
 20
16.660104870240506
 10
20.00695856256207
 20
19.261080825398782
  0
HATCH
  5
E8
330
17
100
AcDbEntity
  8
BLINDING-GROUND-BEAMS-HATCH
 62
7
100
AcDbHatch
 10
0.0
 20
0.0
 30
0.0
210
0.0
220
0.0
230
1.0
  2
ANSI31
 70
0
 71
0
 91
1
 92
3
 72
0
 73
1
 93
4
 10
20.505363303832894
 20
19.22117200583769
 10
20.297095060211305
 20
16.620196050679414
 10
19.79869031894048
 20
16.660104870240506
 10
20.00695856256207
 20
19.261080825398782
 97
0
 75
1
 76
1
 52
0.0
 41
0.03
 77
0
 78
1
 53
45.0
 43
0.0
 44
0.0
 45
-0.0673519209
 46
0.0673519209
 79
0
 98
0
  0
LWPOLYLINE
  5
E9
330
17
100
AcDbEntity
  8
BLINDING-GROUND-BEAMS
100
AcDbPolyline
 90
4
 70
1
 10
-16.6
 20
18.82
 10
-16.6
 20
11.899999999999999
 10
-16.1
 20
11.899999999999999
 10
-16.1
 20
18.82
  0
HATCH
  5
EA
330
17
100
AcDbEntity
  8
BLINDING-GROUND-BEAMS-HATCH
 62
7
100
AcDbHatch
 10
0.0
 20
0.0
 30
0.0
210
0.0
220
0.0
230
1.0
  2
ANSI31
 70
0
 71
0
 91
1
 92
3
 72
0
 73
1
 93
4
 10
-16.6
 20
18.82
 10
-16.6
 20
11.899999999999999
 10
-16.1
 20
11.899999999999999
 10
-16.1
 20
18.82
 97
0
 75
1
 76
1
 52
0.0
 41
0.03
 77
0
 78
1
 53
45.0
 43
0.0
 44
0.0
 45
-0.0673519209
 46
0.0673519209
 79
0
 98
0
  0
LWPOLYLINE
  5
EB
330
17
100
AcDbEntity
  8
BLINDING-GROUND-BEAMS
100
AcDbPolyline
 90
4
 70
1
 10
-21.96638464813988
 20
18.504295741236305
 10
-19.866876011180253
 20
11.904174761032571
 10
-20.34334995187897
 20
11.752607667522678
 10
-22.442858588838597
 20
18.352728647726416
  0
HATCH
  5
EC
330
17
100
AcDbEntity
  8
BLINDING-GROUND-BEAMS-HATCH
 62
7
100
AcDbHatch
 10
0.0
 20
0.0
 30
0.0
210
0.0
220
0.0
230
1.0
  2
ANSI31
 70
0
 71
0
 91
1
 92
3
 72
0
 73
1
 93
4
 10
-21.96638464813988
 20
18.504295741236305
 10
-19.866876011180253
 20
11.904174761032571
 10
-20.34334995187897
 20
11.752607667522678
 10
-22.442858588838597
 20
18.352728647726416
 97
0
 75
1
 76
1
 52
0.0
 41
0.03
 77
0
 78
1
 53
45.0
 43
0.0
 44
0.0
 45
-0.0673519209
 46
0.0673519209
 79
0
 98
0
  0
LWPOLYLINE
  5
ED
330
17
100
AcDbEntity
  8
BLINDING-GROUND-BEAMS
100
AcDbPolyline
 90
4
 70
1
 10
1.8000000000000043
 20
18.119999999999997
 10
1.8000000000000043
 20
11.839999999999996
 10
2.3000000000000043
 20
11.839999999999996
 10
2.3000000000000043
 20
18.119999999999997
  0
HATCH
  5
EE
330
17
100
AcDbEntity
  8
BLINDING-GROUND-BEAMS-HATCH
 62
7
100
AcDbHatch
 10
0.0
 20
0.0
 30
0.0
210
0.0
220
0.0
230
1.0
  2
ANSI31
 70
0
 71
0
 91
1
 92
3
 72
0
 73
1
 93
4
 10
1.8000000000000043
 20
18.119999999999997
 10
1.8000000000000043
 20
11.839999999999996
 10
2.3000000000000043
 20
11.839999999999996
 10
2.3000000000000043
 20
18.119999999999997
 97
0
 75
1
 76
1
 52
0.0
 41
0.03
 77
0
 78
1
 53
45.0
 43
0.0
 44
0.0
 45
-0.0673519209
 46
0.0673519209
 79
0
 98
0
  0
LWPOLYLINE
  5
EF
330
17
100
AcDbEntity
  8
BLINDING-GROUND-BEAMS
100
AcDbPolyline
 90
4
 70
1
 10
-9.399999999999999
 20
18.019999999999996
 10
-9.399999999999999
 20
11.899999999999999
 10
-8.899999999999999
 20
11.899999999999999
 10
-8.899999999999999
 20
18.019999999999996
  0
HATCH
  5
F0
330
17
100
AcDbEntity
  8
BLINDING-GROUND-BEAMS-HATCH
 62
7
100
AcDbHatch
 10
0.0
 20
0.0
 30
0.0
210
0.0
220
0.0
230
1.0
  2
ANSI31
 70
0
 71
0
 91
1
 92
3
 72
0
 73
1
 93
4
 10
-9.399999999999999
 20
18.019999999999996
 10
-9.399999999999999
 20
11.899999999999999
 10
-8.899999999999999
 20
11.899999999999999
 10
-8.899999999999999
 20
18.019999999999996
 97
0
 75
1
 76
1
 52
0.0
 41
0.03
 77
0
 78
1
 53
45.0
 43
0.0
 44
0.0
 45
-0.0673519209
 46
0.0673519209
 79
0
 98
0
  0
LWPOLYLINE
  5
F1
330
17
100
AcDbEntity
  8
BLINDING-GROUND-BEAMS
100
AcDbPolyline
 90
4
 70
1
 10
-34.353298525720405
 20
16.2490040811473
 10
-33.04044876001113
 20
12.313192918564416
 10
-33.51475740116645
 20
12.154980046378244
 10
-34.82760716687572
 20
16.090791208961125
  0
HATCH
  5
F2
330
17
100
AcDbEntity
  8
BLINDING-GROUND-BEAMS-HATCH
 62
7
100
AcDbHatch
 10
0.0
 20
0.0
 30
0.0
210
0.0
220
0.0
230
1.0
  2
ANSI31
 70
0
 71
0
 91
1
 92
3
 72
0
 73
1
 93
4
 10
-34.353298525720405
 20
16.2490040811473
 10
-33.04044876001113
 20
12.313192918564416
 10
-33.51475740116645
 20
12.154980046378244
 10
-34.82760716687572
 20
16.090791208961125
 97
0
 75
1
 76
1
 52
0.0
 41
0.03
 77
0
 78
1
 53
45.0
 43
0.0
 44
0.0
 45
-0.0673519209
 46
0.0673519209
 79
0
 98
0
  0
LWPOLYLINE
  5
F3
330
17
100
AcDbEntity
  8
BLINDING-GROUND-BEAMS
100
AcDbPolyline
 90
4
 70
1
 10
12.68
 20
9.64
 10
17.5
 20
9.64
 10
17.5
 20
9.14
 10
12.68
 20
9.14
  0
HATCH
  5
F4
330
17
100
AcDbEntity
  8
BLINDING-GROUND-BEAMS-HATCH
 62
7
100
AcDbHatch
 10
0.0
 20
0.0
 30
0.0
210
0.0
220
0.0
230
1.0
  2
ANSI31
 70
0
 71
0
 91
1
 92
3
 72
0
 73
1
 93
4
 10
12.68
 20
9.64
 10
17.5
 20
9.64
 10
17.5
 20
9.14
 10
12.68
 20
9.14
 97
0
 75
1
 76
1
 52
0.0
 41
0.03
 77
0
 78
1
 53
45.0
 43
0.0
 44
0.0
 45
-0.0673519209
 46
0.0673519209
 79
0
 98
0
  0
LWPOLYLINE
  5
F5
330
17
100
AcDbEntity
  8
BLINDING-GROUND-BEAMS
100
AcDbPolyline
 90
4
 70
1
 10
21.378247039453946
 20
9.645157077950119
 10
24.400141034850463
 20
9.654530155197032
 10
24.401691888747692
 20
9.154532560350626
 10
21.379797893351174
 20
9.145159483103713
  0
HATCH
  5
F6
330
17
100
AcDbEntity
  8
BLINDING-GROUND-BEAMS-HATCH
 62
7
100
AcDbHatch
 10
0.0
 20
0.0
 30
0.0
210
0.0
220
0.0
230
1.0
  2
ANSI31
 70
0
 71
0
 91
1
 92
3
 72
0
 73
1
 93
4
 10
21.378247039453946
 20
9.645157077950119
 10
24.400141034850463
 20
9.654530155197032
 10
24.401691888747692
 20
9.154532560350626
 10
21.379797893351174
 20
9.145159483103713
 97
0
 75
1
 76
1
 52
0.0
 41
0.03
 77
0
 78
1
 53
45.0
 43
0.0
 44
0.0
 45
-0.0673519209
 46
0.0673519209
 79
0
 98
0
  0
LWPOLYLINE
  5
F7
330
17
100
AcDbEntity
  8
BLINDING-GROUND-BEAMS
100
AcDbPolyline
 90
48
 70
1
 10
-10.569999999999999
 20
4.200000000000001
 10
-10.660000000000002
 20
4.209999999999999
 10
-10.649999999999997
 20
4.840000000000002
 10
-10.550000000000002
 20
4.840000000000002
 10
-10.469999999999997
 20
4.8000000000000025
 10
-10.389999999999999
 20
4.8000000000000025
 10
-10.370000000000003
 20
4.779999999999999
 10
-9.709999999999999
 20
4.779999999999999
 10
-9.689999999999996
 20
4.8000000000000025
 10
-9.609999999999998
 20
4.8000000000000025
 10
-9.53
 20
4.840000000000002
 10
-9.459999999999999
 20
4.910000000000002
 10
-9.42
 20
4.99
 10
-9.42
 20
5.0699999999999985
 10
-9.399999999999997
 20
5.090000000000002
 10
-9.399999999999997
 20
6.3299999999999965
 10
-9.42
 20
6.35
 10
-9.42
 20
6.429999999999998
 10
-9.439999999999996
 20
6.450000000000001
 10
-9.439999999999996
 20
6.49
 10
-9.459999999999999
 20
6.509999999999996
 10
-9.450000000000001
 20
6.619999999999996
 10
-8.819999999999999
 20
6.609999999999998
 10
-8.819999999999999
 20
6.509999999999996
 10
-8.840000000000002
 20
6.49
 10
-8.840000000000002
 20
6.450000000000001
 10
-8.859999999999998
 20
6.429999999999998
 10
-8.859999999999998
 20
6.35
 10
-8.88
 20
6.3299999999999965
 10
-8.88
 20
5.090000000000002
 10
-8.859999999999998
 20
5.0699999999999985
 10
-8.859999999999998
 20
4.99
 10
-8.819999999999999
 20
4.910000000000002
 10
-8.749999999999998
 20
4.840000000000002
 10
-8.67
 20
4.8000000000000025
 10
-8.590000000000002
 20
4.8000000000000025
 10
-8.569999999999999
 20
4.779999999999999
 10
-5.969999999999997
 20
4.779999999999999
 10
-5.950000000000001
 20
4.8000000000000025
 10
-5.870000000000003
 20
4.8000000000000025
 10
-5.789999999999997
 20
4.840000000000002
 10
-5.67
 20
4.840000000000002
 10
-5.660000000000002
 20
4.35
 10
-5.620000000000003
 20
4.270000000000001
 10
-10.370000000000003
 20
4.259999999999996
 10
-10.389999999999999
 20
4.24
 10
-10.469999999999997
 20
4.24
 10
-10.49
 20
4.219999999999997
  0
HATCH
  5
F8
330
17
100
AcDbEntity
  8
BLINDING-GROUND-BEAMS-HATCH
 62
7
100
AcDbHatch
 10
0.0
 20
0.0
 30
0.0
210
0.0
220
0.0
230
1.0
  2
ANSI31
 70
0
 71
0
 91
1
 92
3
 72
0
 73
1
 93
48
 10
-10.569999999999999
 20
4.200000000000001
 10
-10.660000000000002
 20
4.209999999999999
 10
-10.649999999999997
 20
4.840000000000002
 10
-10.550000000000002
 20
4.840000000000002
 10
-10.469999999999997
 20
4.8000000000000025
 10
-10.389999999999999
 20
4.8000000000000025
 10
-10.370000000000003
 20
4.779999999999999
 10
-9.709999999999999
 20
4.779999999999999
 10
-9.689999999999996
 20
4.8000000000000025
 10
-9.609999999999998
 20
4.8000000000000025
 10
-9.53
 20
4.840000000000002
 10
-9.459999999999999
 20
4.910000000000002
 10
-9.42
 20
4.99
 10
-9.42
 20
5.0699999999999985
 10
-9.399999999999997
 20
5.090000000000002
 10
-9.399999999999997
 20
6.3299999999999965
 10
-9.42
 20
6.35
 10
-9.42
 20
6.429999999999998
 10
-9.439999999999996
 20
6.450000000000001
 10
-9.439999999999996
 20
6.49
 10
-9.459999999999999
 20
6.509999999999996
 10
-9.450000000000001
 20
6.619999999999996
 10
-8.819999999999999
 20
6.609999999999998
 10
-8.819999999999999
 20
6.509999999999996
 10
-8.840000000000002
 20
6.49
 10
-8.840000000000002
 20
6.450000000000001
 10
-8.859999999999998
 20
6.429999999999998
 10
-8.859999999999998
 20
6.35
 10
-8.88
 20
6.3299999999999965
 10
-8.88
 20
5.090000000000002
 10
-8.859999999999998
 20
5.0699999999999985
 10
-8.859999999999998
 20
4.99
 10
-8.819999999999999
 20
4.910000000000002
 10
-8.749999999999998
 20
4.840000000000002
 10
-8.67
 20
4.8000000000000025
 10
-8.590000000000002
 20
4.8000000000000025
 10
-8.569999999999999
 20
4.779999999999999
 10
-5.969999999999997
 20
4.779999999999999
 10
-5.950000000000001
 20
4.8000000000000025
 10
-5.870000000000003
 20
4.8000000000000025
 10
-5.789999999999997
 20
4.840000000000002
 10
-5.67
 20
4.840000000000002
 10
-5.660000000000002
 20
4.35
 10
-5.620000000000003
 20
4.270000000000001
 10
-10.370000000000003
 20
4.259999999999996
 10
-10.389999999999999
 20
4.24
 10
-10.469999999999997
 20
4.24
 10
-10.49
 20
4.219999999999997
 97
0
 75
1
 76
1
 52
0.0
 41
0.03
 77
0
 78
1
 53
45.0
 43
0.0
 44
0.0
 45
-0.0673519209
 46
0.0673519209
 79
0
 98
0
  0
LWPOLYLINE
  5
F9
330
17
100
AcDbEntity
  8
BLINDING-GROUND-BEAMS
100
AcDbPolyline
 90
4
 70
1
 10
12.280000000000001
 20
6.339999999999996
 10
14.200000000000003
 20
6.339999999999996
 10
14.200000000000003
 20
5.839999999999996
 10
12.280000000000001
 20
5.839999999999996
  0
HATCH
  5
FA
330
17
100
AcDbEntity
  8
BLINDING-GROUND-BEAMS-HATCH
 62
7
100
AcDbHatch
 10
0.0
 20
0.0
 30
0.0
210
0.0
220
0.0
230
1.0
  2
ANSI31
 70
0
 71
0
 91
1
 92
3
 72
0
 73
1
 93
4
 10
12.280000000000001
 20
6.339999999999996
 10
14.200000000000003
 20
6.339999999999996
 10
14.200000000000003
 20
5.839999999999996
 10
12.280000000000001
 20
5.839999999999996
 97
0
 75
1
 76
1
 52
0.0
 41
0.03
 77
0
 78
1
 53
45.0
 43
0.0
 44
0.0
 45
-0.0673519209
 46
0.0673519209
 79
0
 98
0
  0
LWPOLYLINE
  5
FB
330
17
100
AcDbEntity
  8
BLINDING-GROUND-BEAMS
100
AcDbPolyline
 90
4
 70
1
 10
16.379999999999995
 20
6.339999999999999
 10
18.560000000000002
 20
6.339999999999999
 10
18.560000000000002
 20
5.839999999999999
 10
16.379999999999995
 20
5.839999999999999
  0
HATCH
  5
FC
330
17
100
AcDbEntity
  8
BLINDING-GROUND-BEAMS-HATCH
 62
7
100
AcDbHatch
 10
0.0
 20
0.0
 30
0.0
210
0.0
220
0.0
230
1.0
  2
ANSI31
 70
0
 71
0
 91
1
 92
3
 72
0
 73
1
 93
4
 10
16.379999999999995
 20
6.339999999999999
 10
18.560000000000002
 20
6.339999999999999
 10
18.560000000000002
 20
5.839999999999999
 10
16.379999999999995
 20
5.839999999999999
 97
0
 75
1
 76
1
 52
0.0
 41
0.03
 77
0
 78
1
 53
45.0
 43
0.0
 44
0.0
 45
-0.0673519209
 46
0.0673519209
 79
0
 98
0
  0
LWPOLYLINE
  5
FD
330
17
100
AcDbEntity
  8
BLINDING-GROUND-BEAMS
100
AcDbPolyline
 90
4
 70
1
 10
20.73945022431932
 20
6.34619324993269
 10
24.78004843687784
 20
6.350116685319649
 10
24.780533938446048
 20
5.850116921031478
 10
20.739935725887527
 20
5.846193485644519
  0
HATCH
  5
FE
330
17
100
AcDbEntity
  8
BLINDING-GROUND-BEAMS-HATCH
 62
7
100
AcDbHatch
 10
0.0
 20
0.0
 30
0.0
210
0.0
220
0.0
230
1.0
  2
ANSI31
 70
0
 71
0
 91
1
 92
3
 72
0
 73
1
 93
4
 10
20.73945022431932
 20
6.34619324993269
 10
24.78004843687784
 20
6.350116685319649
 10
24.780533938446048
 20
5.850116921031478
 10
20.739935725887527
 20
5.846193485644519
 97
0
 75
1
 76
1
 52
0.0
 41
0.03
 77
0
 78
1
 53
45.0
 43
0.0
 44
0.0
 45
-0.0673519209
 46
0.0673519209
 79
0
 98
0
  0
LWPOLYLINE
  5
FF
330
17
100
AcDbEntity
  8
BLINDING-GROUND-BEAMS
100
AcDbPolyline
 90
4
 70
1
 10
10.900000000000002
 20
4.759999999999998
 10
10.900000000000002
 20
0.6000000000000014
 10
11.400000000000002
 20
0.6000000000000014
 10
11.400000000000002
 20
4.759999999999998
  0
HATCH
  5
100
330
17
100
AcDbEntity
  8
BLINDING-GROUND-BEAMS-HATCH
 62
7
100
AcDbHatch
 10
0.0
 20
0.0
 30
0.0
210
0.0
220
0.0
230
1.0
  2
ANSI31
 70
0
 71
0
 91
1
 92
3
 72
0
 73
1
 93
4
 10
10.900000000000002
 20
4.759999999999998
 10
10.900000000000002
 20
0.6000000000000014
 10
11.400000000000002
 20
0.6000000000000014
 10
11.400000000000002
 20
4.759999999999998
 97
0
 75
1
 76
1
 52
0.0
 41
0.03
 77
0
 78
1
 53
45.0
 43
0.0
 44
0.0
 45
-0.0673519209
 46
0.0673519209
 79
0
 98
0
  0
LWPOLYLINE
  5
101
330
17
100
AcDbEntity
  8
BLINDING-GROUND-BEAMS
100
AcDbPolyline
 90
4
 70
1
 10
15.0
 20
4.759999999999998
 10
15.0
 20
0.6000000000000014
 10
15.5
 20
0.6000000000000014
 10
15.5
 20
4.759999999999998
  0
HATCH
  5
102
330
17
100
AcDbEntity
  8
BLINDING-GROUND-BEAMS-HATCH
 62
7
100
AcDbHatch
 10
0.0
 20
0.0
 30
0.0
210
0.0
220
0.0
230
1.0
  2
ANSI31
 70
0
 71
0
 91
1
 92
3
 72
0
 73
1
 93
4
 10
15.0
 20
4.759999999999998
 10
15.0
 20
0.6000000000000014
 10
15.5
 20
0.6000000000000014
 10
15.5
 20
4.759999999999998
 97
0
 75
1
 76
1
 52
0.0
 41
0.03
 77
0
 78
1
 53
45.0
 43
0.0
 44
0.0
 45
-0.0673519209
 46
0.0673519209
 79
0
 98
0
  0
LWPOLYLINE
  5
103
330
17
100
AcDbEntity
  8
BLINDING-GROUND-BEAMS
100
AcDbPolyline
 90
4
 70
1
 10
19.340000000000003
 20
4.759999999999998
 10
19.340000000000003
 20
0.6000000000000014
 10
19.840000000000003
 20
0.6000000000000014
 10
19.840000000000003
 20
4.759999999999998
  0
HATCH
  5
104
330
17
100
AcDbEntity
  8
BLINDING-GROUND-BEAMS-HATCH
 62
7
100
AcDbHatch
 10
0.0
 20
0.0
 30
0.0
210
0.0
220
0.0
230
1.0
  2
ANSI31
 70
0
 71
0
 91
1
 92
3
 72
0
 73
1
 93
4
 10
19.340000000000003
 20
4.759999999999998
 10
19.340000000000003
 20
0.6000000000000014
 10
19.840000000000003
 20
0.6000000000000014
 10
19.840000000000003
 20
4.759999999999998
 97
0
 75
1
 76
1
 52
0.0
 41
0.03
 77
0
 78
1
 53
45.0
 43
0.0
 44
0.0
 45
-0.0673519209
 46
0.0673519209
 79
0
 98
0
  0
TEXT
  5
105
330
17
100
AcDbEntity
  8
BLINDING-LABEL
100
AcDbText
 10
-22.550000000000022
 20
55.359999999999516
 30
0.0
 40
0.15
  1
6.30
 50
5.227265383513725
 72
1
 11
-22.550000000000022
 21
55.359999999999516
 31
0.0
100
AcDbText
 73
2
  0
TEXT
  5
106
330
17
100
AcDbEntity
  8
BLINDING-LABEL
100
AcDbText
 10
-16.350000000000012
 20
52.35000000000016
 30
0.0
 40
0.15
  1
0.82
 50
-90.0
 72
1
 11
-16.350000000000012
 21
52.35000000000016
 31
0.0
100
AcDbText
 73
2
  0
TEXT
  5
107
330
17
100
AcDbEntity
  8
BLINDING-LABEL
100
AcDbText
 10
-9.14999999999999
 20
52.300000000000125
 30
0.0
 40
0.15
  1
0.92
 50
-90.0
 72
1
 11
-9.14999999999999
 21
52.300000000000125
 31
0.0
100
AcDbText
 73
2
  0
TEXT
  5
108
330
17
100
AcDbEntity
  8
BLINDING-LABEL
100
AcDbText
 10
2.0500000000000083
 20
52.300000000000125
 30
0.0
 40
0.15
  1
0.92
 50
-90.0
 72
1
 11
2.0500000000000083
 21
52.300000000000125
 31
0.0
100
AcDbText
 73
2
  0
TEXT
  5
109
330
17
100
AcDbEntity
  8
BLINDING-LABEL
100
AcDbText
 10
-12.650000000000006
 20
49.73000000000004
 30
0.0
 40
0.15
  1
3.02
 72
1
 11
-12.650000000000006
 21
49.73000000000004
 31
0.0
100
AcDbText
 73
2
  0
TEXT
  5
10A
330
17
100
AcDbEntity
  8
BLINDING-LABEL
100
AcDbText
 10
-3.500000000000001
 20
49.7299999999981
 30
0.0
 40
0.15
  1
7.12
 72
1
 11
-3.500000000000001
 21
49.7299999999981
 31
0.0
100
AcDbText
 73
2
  0
TEXT
  5
10B
330
17
100
AcDbEntity
  8
BLINDING-LABEL
100
AcDbText
 10
5.31999999999999
 20
49.72999999999987
 30
0.0
 40
0.15
  1
2.36
 72
1
 11
5.31999999999999
 21
49.72999999999987
 31
0.0
100
AcDbText
 73
2
  0
TEXT
  5
10C
330
17
100
AcDbEntity
  8
BLINDING-LABEL
100
AcDbText
 10
-22.05000000000001
 20
49.10000000000071
 30
0.0
 40
0.15
  1
7.32
 50
6.040328883498773
 72
1
 11
-22.05000000000001
 21
49.10000000000071
 31
0.0
100
AcDbText
 73
2
  0
TEXT
  5
10D
330
17
100
AcDbEntity
  8
BLINDING-LABEL
100
AcDbText
 10
-9.149999999999988
 20
47.12999999999997
 30
0.0
 40
0.15
  1
1.26
 50
-90.0
 72
1
 11
-9.149999999999988
 21
47.12999999999997
 31
0.0
100
AcDbText
 73
2
  0
TEXT
  5
10E
330
17
100
AcDbEntity
  8
BLINDING-LABEL
100
AcDbText
 10
2.0500000000000083
 20
47.12999999999997
 30
0.0
 40
0.15
  1
1.26
 50
-90.0
 72
1
 11
2.0500000000000083
 21
47.12999999999997
 31
0.0
100
AcDbText
 73
2
  0
TEXT
  5
10F
330
17
100
AcDbEntity
  8
BLINDING-LABEL
100
AcDbText
 10
-16.349999999999994
 20
46.88000000000005
 30
0.0
 40
0.15
  1
1.56
 50
-90.0
 72
1
 11
-16.349999999999994
 21
46.88000000000005
 31
0.0
100
AcDbText
 73
2
  0
TEXT
  5
110
330
17
100
AcDbEntity
  8
BLINDING-LABEL
100
AcDbText
 10
-38.79182753229657
 20
45.209240516744366
 30
0.0
 40
0.15
  1
8.67
 50
19.570899390524175
 72
1
 11
-38.79182753229657
 21
45.209240516744366
 31
0.0
100
AcDbText
 73
2
  0
TEXT
  5
111
330
17
100
AcDbEntity
  8
BLINDING-LABEL
100
AcDbText
 10
-28.948188619360593
 20
44.677315801405555
 30
0.0
 40
0.15
  1
3.34
 50
-89.82829888588144
 72
1
 11
-28.948188619360593
 21
44.677315801405555
 31
0.0
100
AcDbText
 73
2
  0
TEXT
  5
112
330
17
100
AcDbEntity
  8
BLINDING-LABEL
100
AcDbText
 10
-12.949999999999987
 20
43.990000000000094
 30
0.0
 40
0.15
  1
1.42
 72
1
 11
-12.949999999999987
 21
43.990000000000094
 31
0.0
100
AcDbText
 73
2
  0
TEXT
  5
113
330
17
100
AcDbEntity
  8
BLINDING-LABEL
100
AcDbText
 10
-3.5000000000000004
 20
43.989999999999725
 30
0.0
 40
0.15
  1
4.92
 72
1
 11
-3.5000000000000004
 21
43.989999999999725
 31
0.0
100
AcDbText
 73
2
  0
TEXT
  5
114
330
17
100
AcDbEntity
  8
BLINDING-LABEL
100
AcDbText
 10
5.570000000000001
 20
43.98999999999999
 30
0.0
 40
0.15
  1
0.66
 72
1
 11
5.570000000000001
 21
43.98999999999999
 31
0.0
100
AcDbText
 73
2
  0
TEXT
  5
115
330
17
100
AcDbEntity
  8
BLINDING-LABEL
100
AcDbText
 10
13.533418367346943
 20
43.99000000000006
 30
0.0
 40
0.15
  1
1.76
 72
1
 11
13.533418367346943
 21
43.99000000000006
 31
0.0
100
AcDbText
 73
2
  0
TEXT
  5
116
330
17
100
AcDbEntity
  8
BLINDING-LABEL
100
AcDbText
 10
17.862226016764975
 20
43.99108040981036
 30
0.0
 40
0.15
  1
4.92
 50
0.07114492058417454
 72
1
 11
17.862226016764975
 21
43.99108040981036
 31
0.0
100
AcDbText
 73
2
  0
TEXT
  5
117
330
17
100
AcDbEntity
  8
BLINDING-LABEL
100
AcDbText
 10
-35.97
 20
39.530000000001785
 30
0.0
 40
0.15
  1
8.50
 50
0.05657558726463208
 72
1
 11
-35.97
 21
39.530000000001785
 31
0.0
100
AcDbText
 73
2
  0
TEXT
  5
118
330
17
100
AcDbEntity
  8
BLINDING-LABEL
100
AcDbText
 10
-22.50228012336487
 20
39.52915027119147
 30
0.0
 40
0.15
  1
7.18
 50
0.03885893630152282
 72
1
 11
-22.50228012336487
 21
39.52915027119147
 31
0.0
100
AcDbText
 73
2
  0
TEXT
  5
119
330
17
100
AcDbEntity
  8
BLINDING-LABEL
100
AcDbText
 10
-12.949999999999987
 20
39.53000000000005
 30
0.0
 40
0.15
  1
1.42
 72
1
 11
-12.949999999999987
 21
39.53000000000005
 31
0.0
100
AcDbText
 73
2
  0
TEXT
  5
11A
330
17
100
AcDbEntity
  8
BLINDING-LABEL
100
AcDbText
 10
-3.5000000000000004
 20
39.529999999999305
 30
0.0
 40
0.15
  1
4.92
 72
1
 11
-3.5000000000000004
 21
39.529999999999305
 31
0.0
100
AcDbText
 73
2
  0
TEXT
  5
11B
330
17
100
AcDbEntity
  8
BLINDING-LABEL
100
AcDbText
 10
5.570000000000001
 20
39.53000000000017
 30
0.0
 40
0.15
  1
0.66
 72
1
 11
5.570000000000001
 21
39.53000000000017
 31
0.0
100
AcDbText
 73
2
  0
TEXT
  5
11C
330
17
100
AcDbEntity
  8
BLINDING-LABEL
100
AcDbText
 10
13.533418367346943
 20
39.53000000000006
 30
0.0
 40
0.15
  1
1.76
 72
1
 11
13.533418367346943
 21
39.53000000000006
 31
0.0
100
AcDbText
 73
2
  0
TEXT
  5
11D
330
17
100
AcDbEntity
  8
BLINDING-LABEL
100
AcDbText
 10
16.79157923497269
 20
39.53190163934416
 30
0.0
 40
0.15
  1
2.78
 50
0.21512491954374013
 72
1
 11
16.79157923497269
 21
39.53190163934416
 31
0.0
100
AcDbText
 73
2
  0
TEXT
  5
11E
330
17
100
AcDbEntity
  8
BLINDING-LABEL
100
AcDbText
 10
-16.35
 20
35.13000000000003
 30
0.0
 40
0.15
  1
3.86
 50
-90.0
 72
1
 11
-16.35
 21
35.13000000000003
 31
0.0
100
AcDbText
 73
2
  0
TEXT
  5
11F
330
17
100
AcDbEntity
  8
BLINDING-LABEL
100
AcDbText
 10
-9.150000000000013
 20
35.38000000000006
 30
0.0
 40
0.15
  1
2.96
 50
-90.0
 72
1
 11
-9.150000000000013
 21
35.38000000000006
 31
0.0
100
AcDbText
 73
2
  0
TEXT
  5
120
330
17
100
AcDbEntity
  8
BLINDING-LABEL
100
AcDbText
 10
2.0500000000000056
 20
35.250000000000114
 30
0.0
 40
0.15
  1
3.22
 50
-90.0
 72
1
 11
2.0500000000000056
 21
35.250000000000114
 31
0.0
100
AcDbText
 73
2
  0
TEXT
  5
121
330
17
100
AcDbEntity
  8
BLINDING-LABEL
100
AcDbText
 10
-33.04
 20
30.530000000001145
 30
0.0
 40
0.15
  1
8.40
 50
0.05791060941632509
 72
1
 11
-33.04
 21
30.530000000001145
 31
0.0
100
AcDbText
 73
2
  0
TEXT
  5
122
330
17
100
AcDbEntity
  8
BLINDING-LABEL
100
AcDbText
 10
-21.09252463716178
 20
30.52856835692465
 30
0.0
 40
0.15
  1
4.24
 50
0.10822685295497081
 72
1
 11
-21.09252463716178
 21
30.52856835692465
 31
0.0
100
AcDbText
 73
2
  0
TEXT
  5
123
330
17
100
AcDbEntity
  8
BLINDING-LABEL
100
AcDbText
 10
-13.060000000000027
 20
30.529999999999905
 30
0.0
 40
0.15
  1
1.12
 72
1
 11
-13.060000000000027
 21
30.529999999999905
 31
0.0
100
AcDbText
 73
2
  0
TEXT
  5
124
330
17
100
AcDbEntity
  8
BLINDING-LABEL
100
AcDbText
 10
-3.380000000000006
 20
30.53000000000008
 30
0.0
 40
0.15
  1
4.68
 72
1
 11
-3.380000000000006
 21
30.53000000000008
 31
0.0
100
AcDbText
 73
2
  0
TEXT
  5
125
330
17
100
AcDbEntity
  8
BLINDING-LABEL
100
AcDbText
 10
5.699999999999999
 20
30.530000000000104
 30
0.0
 40
0.15
  1
0.92
 72
1
 11
5.699999999999999
 21
30.530000000000104
 31
0.0
100
AcDbText
 73
2
  0
TEXT
  5
126
330
17
100
AcDbEntity
  8
BLINDING-LABEL
100
AcDbText
 10
13.413018018018018
 20
30.530000000000058
 30
0.0
 40
0.15
  1
2.00
 72
1
 11
13.413018018018018
 21
30.530000000000058
 31
0.0
100
AcDbText
 73
2
  0
TEXT
  5
127
330
17
100
AcDbEntity
  8
BLINDING-LABEL
100
AcDbText
 10
16.691464705882343
 20
30.532047058823924
 30
0.0
 40
0.15
  1
2.58
 50
0.24858157145052928
 72
1
 11
16.691464705882343
 21
30.532047058823924
 31
0.0
100
AcDbText
 73
2
  0
TEXT
  5
128
330
17
100
AcDbEntity
  8
BLINDING-LABEL
100
AcDbText
 10
-16.349999999999987
 20
26.010000000000044
 30
0.0
 40
0.15
  1
3.62
 50
-90.0
 72
1
 11
-16.349999999999987
 21
26.010000000000044
 31
0.0
100
AcDbText
 73
2
  0
TEXT
  5
129
330
17
100
AcDbEntity
  8
BLINDING-LABEL
100
AcDbText
 10
2.0500000000000034
 20
26.129999999999967
 30
0.0
 40
0.15
  1
2.46
 50
-90.0
 72
1
 11
2.0500000000000034
 21
26.129999999999967
 31
0.0
100
AcDbText
 73
2
  0
TEXT
  5
12A
330
17
100
AcDbEntity
  8
BLINDING-LABEL
100
AcDbText
 10
-9.150000000000007
 20
26.059999999999963
 30
0.0
 40
0.15
  1
2.12
 50
-90.0
 72
1
 11
-9.150000000000007
 21
26.059999999999963
 31
0.0
100
AcDbText
 73
2
  0
TEXT
  5
12B
330
17
100
AcDbEntity
  8
BLINDING-LABEL
100
AcDbText
 10
-30.099999999999984
 20
21.52999999999978
 30
0.0
 40
0.15
  1
8.28
 50
0.05957604888345713
 72
1
 11
-30.099999999999984
 21
21.52999999999978
 31
0.0
100
AcDbText
 73
2
  0
TEXT
  5
12C
330
17
100
AcDbEntity
  8
BLINDING-LABEL
100
AcDbText
 10
-19.653750680457286
 20
21.52565051714758
 30
0.0
 40
0.15
  1
1.36
 50
1.0149957148955195
 72
1
 11
-19.653750680457286
 21
21.52565051714758
 31
0.0
100
AcDbText
 73
2
  0
TEXT
  5
12D
330
17
100
AcDbEntity
  8
BLINDING-LABEL
100
AcDbText
 10
-13.110000000000003
 20
21.529999999999937
 30
0.0
 40
0.15
  1
1.02
 72
1
 11
-13.110000000000003
 21
21.529999999999937
 31
0.0
100
AcDbText
 73
2
  0
TEXT
  5
12E
330
17
100
AcDbEntity
  8
BLINDING-LABEL
100
AcDbText
 10
-3.4599999999999995
 20
21.530000000000385
 30
0.0
 40
0.15
  1
4.32
 72
1
 11
-3.4599999999999995
 21
21.530000000000385
 31
0.0
100
AcDbText
 73
2
  0
TEXT
  5
12F
330
17
100
AcDbEntity
  8
BLINDING-LABEL
100
AcDbText
 10
5.820000000000002
 20
21.529999999999983
 30
0.0
 40
0.15
  1
0.68
 72
1
 11
5.820000000000002
 21
21.529999999999983
 31
0.0
100
AcDbText
 73
2
  0
TEXT
  5
130
330
17
100
AcDbEntity
  8
BLINDING-LABEL
100
AcDbText
 10
13.413018018018018
 20
21.530000000000094
 30
0.0
 40
0.15
  1
2.00
 72
1
 11
13.413018018018018
 21
21.530000000000094
 31
0.0
100
AcDbText
 73
2
  0
TEXT
  5
131
330
17
100
AcDbEntity
  8
BLINDING-LABEL
100
AcDbText
 10
16.621373523927915
 20
21.53216283405834
 30
0.0
 40
0.15
  1
2.44
 50
0.27696350654480284
 72
1
 11
16.621373523927915
 21
21.53216283405834
 31
0.0
100
AcDbText
 73
2
  0
TEXT
  5
132
330
17
100
AcDbEntity
  8
BLINDING-LABEL
100
AcDbText
 10
20.15384438040344
 20
17.96263976945242
 30
0.0
 40
0.15
  1
2.61
 50
85.42191629254512
 72
1
 11
20.15384438040344
 21
17.96263976945242
 31
0.0
100
AcDbText
 73
2
  0
TEXT
  5
133
330
17
100
AcDbEntity
  8
BLINDING-LABEL
100
AcDbText
 10
-16.350000000000104
 20
15.360000000000051
 30
0.0
 40
0.15
  1
6.92
 50
-90.0
 72
1
 11
-16.350000000000104
 21
15.360000000000051
 31
0.0
100
AcDbText
 73
2
  0
TEXT
  5
134
330
17
100
AcDbEntity
  8
BLINDING-LABEL
100
AcDbText
 10
-21.14517499449703
 20
15.097140655954275
 30
0.0
 40
0.15
  1
6.93
 50
-72.35405271227259
 72
1
 11
-21.14517499449703
 21
15.097140655954275
 31
0.0
100
AcDbText
 73
2
  0
TEXT
  5
135
330
17
100
AcDbEntity
  8
BLINDING-LABEL
100
AcDbText
 10
2.049999999999987
 20
14.979999999999983
 30
0.0
 40
0.15
  1
6.28
 50
-90.0
 72
1
 11
2.049999999999987
 21
14.979999999999983
 31
0.0
100
AcDbText
 73
2
  0
TEXT
  5
136
330
17
100
AcDbEntity
  8
BLINDING-LABEL
100
AcDbText
 10
-9.150000000000022
 20
14.959999999999999
 30
0.0
 40
0.15
  1
6.12
 50
-90.0
 72
1
 11
-9.150000000000022
 21
14.959999999999999
 31
0.0
100
AcDbText
 73
2
  0
TEXT
  5
137
330
17
100
AcDbEntity
  8
BLINDING-LABEL
100
AcDbText
 10
-33.937982675649636
 20
14.208885466794982
 30
0.0
 40
0.15
  1
4.15
 50
-71.55309384751006
 72
1
 11
-33.937982675649636
 21
14.208885466794982
 31
0.0
100
AcDbText
 73
2
  0
TEXT
  5
138
330
17
100
AcDbEntity
  8
BLINDING-LABEL
100
AcDbText
 10
15.089999999999993
 20
9.389999999999976
 30
0.0
 40
0.15
  1
4.82
 72
1
 11
15.089999999999993
 21
9.389999999999976
 31
0.0
100
AcDbText
 73
2
  0
TEXT
  5
139
330
17
100
AcDbEntity
  8
BLINDING-LABEL
100
AcDbText
 10
22.883708641975307
 20
9.391718518518644
 30
0.0
 40
0.15
  1
3.02
 50
0.17771505085972641
 72
1
 11
22.883708641975307
 21
9.391718518518644
 31
0.0
100
AcDbText
 73
2
  0
TEXT
  5
13A
330
17
100
AcDbEntity
  8
BLINDING-LABEL
100
AcDbText
 10
-8.4507098462545
 20
4.855895758368857
 30
0.0
 40
0.15
  1
7.34
 50
-9.147452526940441
 72
1
 11
-8.4507098462545
 21
4.855895758368857
 31
0.0
100
AcDbText
 73
2
  0
TEXT
  5
13B
330
17
100
AcDbEntity
  8
BLINDING-LABEL
100
AcDbText
 10
13.239999999999995
 20
6.090000000000013
 30
0.0
 40
0.15
  1
1.92
 72
1
 11
13.239999999999995
 21
6.090000000000013
 31
0.0
100
AcDbText
 73
2
  0
TEXT
  5
13C
330
17
100
AcDbEntity
  8
BLINDING-LABEL
100
AcDbText
 10
17.469999999999988
 20
6.0900000000000425
 30
0.0
 40
0.15
  1
2.18
 72
1
 11
17.469999999999988
 21
6.0900000000000425
 31
0.0
100
AcDbText
 73
2
  0
TEXT
  5
13D
330
17
100
AcDbEntity
  8
BLINDING-LABEL
100
AcDbText
 10
22.75747169110822
 20
6.090714683497436
 30
0.0
 40
0.15
  1
4.04
 50
0.055634390352603535
 72
1
 11
22.75747169110822
 21
6.090714683497436
 31
0.0
100
AcDbText
 73
2
  0
TEXT
  5
13E
330
17
100
AcDbEntity
  8
BLINDING-LABEL
100
AcDbText
 10
11.150000000000027
 20
2.6800000000000015
 30
0.0
 40
0.15
  1
4.16
 50
-90.0
 72
1
 11
11.150000000000027
 21
2.6800000000000015
 31
0.0
100
AcDbText
 73
2
  0
TEXT
  5
13F
330
17
100
AcDbEntity
  8
BLINDING-LABEL
100
AcDbText
 10
15.25
 20
2.6800000000000015
 30
0.0
 40
0.15
  1
4.16
 50
-90.0
 72
1
 11
15.25
 21
2.6800000000000015
 31
0.0
100
AcDbText
 73
2
  0
TEXT
  5
140
330
17
100
AcDbEntity
  8
BLINDING-LABEL
100
AcDbText
 10
19.589999999999936
 20
2.6800000000000015
 30
0.0
 40
0.15
  1
4.16
 50
-90.0
 72
1
 11
19.589999999999936
 21
2.6800000000000015
 31
0.0
100
AcDbText
 73
2
  0
MTEXT
  5
141
330
17
100
AcDbEntity
  8
BLINDING-LABEL
100
AcDbMText
 10
-50.0
 20
66.0
 30
0.0
 40
0.5
 71
7
  1
BLINDING UNDER GROUND (TIE) BEAMS - width 0.50 m for all beams\Ptotal length = 216.86 m\Pbeam blinding = 108.43 m²  (volume @ 100 mm = 10.84 m³)
  0
ENDSEC
  0
SECTION
  2
OBJECTS
  0
DICTIONARY
  5
A
330
0
100
AcDbDictionary
281
1
  3
ACAD_COLOR
350
B
  3
ACAD_GROUP
350
C
  3
ACAD_LAYOUT
350
D
  3
ACAD_MATERIAL
350
E
  3
ACAD_MLEADERSTYLE
350
F
  3
ACAD_MLINESTYLE
350
10
  3
ACAD_PLOTSETTINGS
350
11
  3
ACAD_PLOTSTYLENAME
350
12
  3
ACAD_SCALELIST
350
14
  3
ACAD_TABLESTYLE
350
15
  3
ACAD_VISUALSTYLE
350
16
  3
EZDXF_META
350
2D
  0
DICTIONARY
  5
B
330
A
100
AcDbDictionary
281
1
  0
DICTIONARY
  5
C
330
A
100
AcDbDictionary
281
1
  0
DICTIONARY
  5
D
330
A
100
AcDbDictionary
281
1
  3
Model
350
1A
  3
Layout1
350
1E
  0
DICTIONARY
  5
E
330
A
100
AcDbDictionary
281
1
  3
ByBlock
350
1F
  3
ByLayer
350
20
  3
Global
350
21
  0
DICTIONARY
  5
F
330
A
100
AcDbDictionary
281
1
  3
Standard
350
2C
  0
DICTIONARY
  5
10
330
A
100
AcDbDictionary
281
1
  3
Standard
350
22
  0
DICTIONARY
  5
11
330
A
100
AcDbDictionary
281
1
  0
ACDBDICTIONARYWDFLT
  5
12
330
A
100
AcDbDictionary
281
1
  3
Normal
350
13
100
AcDbDictionaryWithDefault
340
13
  0
ACDBPLACEHOLDER
  5
13
330
12
  0
DICTIONARY
  5
14
330
A
100
AcDbDictionary
281
1
  0
DICTIONARY
  5
15
330
A
100
AcDbDictionary
281
1
  0
DICTIONARY
  5
16
330
A
100
AcDbDictionary
281
1
  3
2dWireframe
350
5A
  3
Basic
350
5B
  3
Brighten
350
5C
  3
ColorChange
350
5D
  3
Conceptual
350
5E
  3
Dim
350
5F
  3
EdgeColorOff
350
60
  3
Facepattern
350
61
  3
Flat
350
62
  3
FlatWithEdges
350
63
  3
Gouraud
350
64
  3
GouraudWithEdges
350
65
  3
Hidden
350
66
  3
JitterOff
350
67
  3
Linepattern
350
68
  3
Modeling
350
69
  3
OverhangOff
350
6A
  3
Realistic
350
6B
  3
Shaded
350
6C
  3
Shaded with edges
350
6D
  3
Shades of Gray
350
6E
  3
Sketchy
350
6F
  3
Thicken
350
70
  3
Wireframe
350
71
  3
X-Ray
350
72
  0
LAYOUT
  5
1A
330
D
100
AcDbPlotSettings
  1

  4
A3
  6

 40
7.5
 41
20.0
 42
7.5
 43
20.0
 44
420.0
 45
297.0
 46
0.0
 47
0.0
 48
0.0
 49
0.0
140
0.0
141
0.0
142
1.0
143
1.0
 70
1024
 72
1
 73
0
 74
5
  7

 75
16
 76
0
 77
2
 78
300
147
1.0
148
0.0
149
0.0
100
AcDbLayout
  1
Model
 70
1
 71
0
 10
0.0
 20
0.0
 11
420.0
 21
297.0
 12
0.0
 22
0.0
 32
0.0
 14
1e+20
 24
1e+20
 34
1e+20
 15
-1e+20
 25
-1e+20
 35
-1e+20
146
0.0
 13
0.0
 23
0.0
 33
0.0
 16
1.0
 26
0.0
 36
0.0
 17
0.0
 27
1.0
 37
0.0
 76
1
330
17
  0
LAYOUT
  5
1E
330
D
100
AcDbPlotSettings
  1

  4
A3
  6

 40
7.5
 41
20.0
 42
7.5
 43
20.0
 44
420.0
 45
297.0
 46
0.0
 47
0.0
 48
0.0
 49
0.0
140
0.0
141
0.0
142
1.0
143
1.0
 70
0
 72
1
 73
0
 74
5
  7

 75
16
 76
0
 77
2
 78
300
147
1.0
148
0.0
149
0.0
100
AcDbLayout
  1
Layout1
 70
1
 71
1
 10
0.0
 20
0.0
 11
420.0
 21
297.0
 12
0.0
 22
0.0
 32
0.0
 14
1e+20
 24
1e+20
 34
1e+20
 15
-1e+20
 25
-1e+20
 35
-1e+20
146
0.0
 13
0.0
 23
0.0
 33
0.0
 16
1.0
 26
0.0
 36
0.0
 17
0.0
 27
1.0
 37
0.0
 76
1
330
1B
  0
MATERIAL
  5
1F
102
{ACAD_REACTORS
330
E
102
}
330
E
100
AcDbMaterial
  1
ByBlock
  2

 70
0
 40
1.0
 71
1
 41
1.0
 91
-1023410177
 42
1.0
 72
1
  3

 73
1
 74
1
 75
1
 44
0.5
 73
0
 45
1.0
 46
1.0
 77
1
  4

 78
1
 79
1
170
1
 48
1.0
171
1
  6

172
1
173
1
174
1
140
1.0
141
1.0
175
1
  7

176
1
177
1
178
1
143
1.0
179
1
  8

270
1
271
1
272
1
145
1.0
146
1.0
273
1
  9

274
1
275
1
276
1
 42
1.0
 72
1
  3

 73
1
 74
1
 75
1
 94
63
  0
MATERIAL
  5
20
102
{ACAD_REACTORS
330
E
102
}
330
E
100
AcDbMaterial
  1
ByLayer
  2

 70
0
 40
1.0
 71
1
 41
1.0
 91
-1023410177
 42
1.0
 72
1
  3

 73
1
 74
1
 75
1
 44
0.5
 73
0
 45
1.0
 46
1.0
 77
1
  4

 78
1
 79
1
170
1
 48
1.0
171
1
  6

172
1
173
1
174
1
140
1.0
141
1.0
175
1
  7

176
1
177
1
178
1
143
1.0
179
1
  8

270
1
271
1
272
1
145
1.0
146
1.0
273
1
  9

274
1
275
1
276
1
 42
1.0
 72
1
  3

 73
1
 74
1
 75
1
 94
63
  0
MATERIAL
  5
21
102
{ACAD_REACTORS
330
E
102
}
330
E
100
AcDbMaterial
  1
Global
  2

 70
0
 40
1.0
 71
1
 41
1.0
 91
-1023410177
 42
1.0
 72
1
  3

 73
1
 74
1
 75
1
 44
0.5
 73
0
 45
1.0
 46
1.0
 77
1
  4

 78
1
 79
1
170
1
 48
1.0
171
1
  6

172
1
173
1
174
1
140
1.0
141
1.0
175
1
  7

176
1
177
1
178
1
143
1.0
179
1
  8

270
1
271
1
272
1
145
1.0
146
1.0
273
1
  9

274
1
275
1
276
1
 42
1.0
 72
1
  3

 73
1
 74
1
 75
1
 94
63
  0
MLINESTYLE
  5
22
102
{ACAD_REACTORS
330
10
102
}
330
10
100
AcDbMlineStyle
  2
Standard
 70
0
  3

 62
256
 51
90.0
 52
90.0
 71
2
 49
0.5
 62
256
  6
BYLAYER
 49
-0.5
 62
256
  6
BYLAYER
  0
MLEADERSTYLE
  5
2C
102
{ACAD_REACTORS
330
F
102
}
330
F
100
AcDbMLeaderStyle
179
2
170
2
171
1
172
0
 90
2
 40
0.0
 41
0.0
173
1
 91
-1056964608
 92
-2
290
1
 42
2.0
291
1
 43
8.0
  3
Standard
 44
4.0
300

342
29
174
1
175
1
176
0
178
1
 93
-1056964608
 45
4.0
292
0
297
0
 46
4.0
 94
-1056964608
 47
1.0
 49
1.0
140
1.0
294
1
141
0.0
177
0
142
1.0
295
0
296
0
143
3.75
271
0
272
9
273
9
  0
DICTIONARY
  5
2D
330
A
100
AcDbDictionary
280
1
281
1
  3
CREATED_BY_EZDXF
350
2E
  3
WRITTEN_BY_EZDXF
350
144
  0
DICTIONARYVAR
  5
2E
330
2D
100
DictionaryVariables
280
0
  1
1.4.4 @ 2026-10-03T19:04:12.568164+00:00
  0
VISUALSTYLE
  5
5A
102
{ACAD_REACTORS
330
16
102
}
330
16
100
AcDbVisualStyle
  2
2dWireframe
 70
4
177
3
291
0
 70
58
 90
2
176
1
 90
2
176
1
 90
0
176
1
 90
0
176
1
 40
0.6
176
1
 40
30.0
176
1
 62
7
420
16777215
176
1
 90
1
176
1
 90
4
176
1
 62
7
176
1
 62
257
176
1
 90
1
176
1
 90
1
176
1
 40
1.0
176
1
 90
8
176
1
 62
7
176
1
 40
1.0
176
1
 90
1
176
1
 90
6
176
1
 90
2
176
1
 62
7
176
1
 90
5
176
1
 90
0
176
1
 90
0
176
1
290
0
176
1
 90
1
176
1
 40
0.0
176
1
 90
0
176
1
290
1
176
1
290
1
176
1
290
0
176
1
290
0
176
1
290
0
176
1
290
0
176
1
290
0
176
1
290
0
176
1
290
0
176
1
 90
50
176
1
 40
0.0
176
1
 40
1.0
176
1
 90
0
176
1
 62
18
420
0
176
1
 90
50
176
1
 90
3
176
1
 62
5
420
255
176
1
290
0
176
1
 90
50
176
1
 90
50
176
1
 90
50
176
1
290
0
176
1
 90
50
176
1
 62
256
176
0
 40
1.0
176
0
 90
2
176
1
  1
strokes_ogs.tif
176
1
290
0
176
1
 40
1.0
176
1
 40
1.0
176
1
  0
VISUALSTYLE
  5
5B
102
{ACAD_REACTORS
330
16
102
}
330
16
100
AcDbVisualStyle
  2
Basic
 70
7
177
3
291
1
 70
58
 90
2
176
1
 90
2
176
1
 90
0
176
1
 90
1
176
1
 40
0.6
176
1
 40
30.0
176
1
 62
7
420
16777215
176
1
 90
1
176
1
 90
4
176
1
 62
7
176
1
 62
257
176
1
 90
1
176
1
 90
1
176
1
 40
1.0
176
1
 90
8
176
1
 62
7
176
1
 40
1.0
176
1
 90
1
176
1
 90
6
176
1
 90
2
176
1
 62
7
176
1
 90
5
176
1
 90
0
176
1
 90
0
176
1
290
0
176
1
 90
1
176
1
 40
0.0
176
1
 90
0
176
1
290
0
176
1
290
1
176
1
290
1
176
1
290
0
176
1
290
0
176
1
290
0
176
1
290
0
176
1
290
0
176
1
290
0
176
1
 90
50
176
1
 40
0.0
176
1
 40
1.0
176
1
 90
0
176
1
 62
18
420
0
176
1
 90
50
176
1
 90
3
176
1
 62
5
420
255
176
1
290
0
176
1
 90
50
176
1
 90
50
176
1
 90
50
176
1
290
0
176
1
 90
50
176
1
 62
256
176
0
 40
1.0
176
0
 90
2
176
1
  1
strokes_ogs.tif
176
1
290
0
176
1
 40
1.0
176
1
 40
1.0
176
1
  0
VISUALSTYLE
  5
5C
102
{ACAD_REACTORS
330
16
102
}
330
16
100
AcDbVisualStyle
  2
Brighten
 70
12
177
3
291
1
 70
58
 90
2
176
1
 90
2
176
1
 90
0
176
1
 90
2
176
1
 40
0.6
176
1
 40
30.0
176
1
 62
7
420
16777215
176
1
 90
1
176
1
 90
4
176
1
 62
7
176
1
 62
257
176
1
 90
1
176
1
 90
1
176
1
 40
1.0
176
1
 90
8
176
1
 62
7
176
1
 40
1.0
176
1
 90
1
176
1
 90
6
176
1
 90
2
176
1
 62
7
176
1
 90
5
176
1
 90
0
176
1
 90
0
176
1
290
0
176
1
 90
1
176
1
 40
0.0
176
1
 90
0
176
1
290
0
176
1
290
1
176
1
290
1
176
1
290
0
176
1
290
0
176
1
290
0
176
1
290
0
176
1
290
0
176
1
290
0
176
1
 90
50
176
1
 40
0.0
176
1
 40
1.0
176
1
 90
0
176
1
 62
18
420
0
176
1
 90
50
176
1
 90
3
176
1
 62
5
420
255
176
1
290
0
176
1
 90
50
176
1
 90
50
176
1
 90
50
176
1
290
0
176
1
 90
50
176
1
 62
256
176
0
 40
1.0
176
0
 90
2
176
1
  1
strokes_ogs.tif
176
1
290
0
176
1
 40
1.0
176
1
 40
1.0
176
1
  0
VISUALSTYLE
  5
5D
102
{ACAD_REACTORS
330
16
102
}
330
16
100
AcDbVisualStyle
  2
ColorChange
 70
16
177
3
291
1
 70
58
 90
2
176
1
 90
2
176
1
 90
0
176
1
 90
2
176
1
 40
0.6
176
1
 40
30.0
176
1
 62
7
420
16777215
176
1
 90
1
176
1
 90
4
176
1
 62
7
176
1
 62
257
176
1
 90
1
176
1
 90
1
176
1
 40
1.0
176
1
 90
8
176
1
 62
7
176
1
 40
1.0
176
1
 90
1
176
1
 90
6
176
1
 90
2
176
1
 62
7
176
1
 90
5
176
1
 90
0
176
1
 90
0
176
1
290
0
176
1
 90
1
176
1
 40
0.0
176
1
 90
0
176
1
290
0
176
1
290
1
176
1
290
1
176
1
290
0
176
1
290
0
176
1
290
0
176
1
290
0
176
1
290
0
176
1
290
0
176
1
 90
50
176
1
 40
0.0
176
1
 40
1.0
176
1
 90
0
176
1
 62
18
420
0
176
1
 90
50
176
1
 90
3
176
1
 62
5
420
255
176
1
290
0
176
1
 90
50
176
1
 90
50
176
1
 90
50
176
1
290
0
176
1
 90
50
176
1
 62
256
176
0
 40
1.0
176
0
 90
2
176
1
  1
strokes_ogs.tif
176
1
290
0
176
1
 40
1.0
176
1
 40
1.0
176
1
  0
VISUALSTYLE
  5
5E
102
{ACAD_REACTORS
330
16
102
}
330
16
100
AcDbVisualStyle
  2
Conceptual
 70
9
177
3
291
0
 70
58
 90
2
176
1
 90
2
176
1
 90
0
176
1
 90
3
176
1
 40
0.6
176
1
 40
30.0
176
1
 62
7
420
16777215
176
1
 90
1
176
1
 90
4
176
1
 62
7
176
1
 62
257
176
1
 90
1
176
1
 90
1
176
1
 40
1.0
176
1
 90
8
176
1
 62
7
176
1
 40
1.0
176
1
 90
1
176
1
 90
6
176
1
 90
2
176
1
 62
7
176
1
 90
5
176
1
 90
0
176
1
 90
0
176
1
290
0
176
1
 90
1
176
1
 40
0.0
176
1
 90
0
176
1
290
0
176
1
290
1
176
1
290
1
176
1
290
0
176
1
290
0
176
1
290
0
176
1
290
0
176
1
290
0
176
1
290
0
176
1
 90
50
176
1
 40
0.0
176
1
 40
1.0
176
1
 90
0
176
1
 62
18
420
0
176
1
 90
50
176
1
 90
3
176
1
 62
5
420
255
176
1
290
0
176
1
 90
50
176
1
 90
50
176
1
 90
50
176
1
290
0
176
1
 90
50
176
1
 62
256
176
0
 40
1.0
176
0
 90
2
176
1
  1
strokes_ogs.tif
176
1
290
0
176
1
 40
1.0
176
1
 40
1.0
176
1
  0
VISUALSTYLE
  5
5F
102
{ACAD_REACTORS
330
16
102
}
330
16
100
AcDbVisualStyle
  2
Dim
 70
11
177
3
291
1
 70
58
 90
2
176
1
 90
2
176
1
 90
0
176
1
 90
2
176
1
 40
0.6
176
1
 40
30.0
176
1
 62
7
420
16777215
176
1
 90
1
176
1
 90
4
176
1
 62
7
176
1
 62
257
176
1
 90
1
176
1
 90
1
176
1
 40
1.0
176
1
 90
8
176
1
 62
7
176
1
 40
1.0
176
1
 90
1
176
1
 90
6
176
1
 90
2
176
1
 62
7
176
1
 90
5
176
1
 90
0
176
1
 90
0
176
1
290
0
176
1
 90
1
176
1
 40
0.0
176
1
 90
0
176
1
290
0
176
1
290
1
176
1
290
1
176
1
290
0
176
1
290
0
176
1
290
0
176
1
290
0
176
1
290
0
176
1
290
0
176
1
 90
50
176
1
 40
0.0
176
1
 40
1.0
176
1
 90
0
176
1
 62
18
420
0
176
1
 90
50
176
1
 90
3
176
1
 62
5
420
255
176
1
290
0
176
1
 90
50
176
1
 90
50
176
1
 90
50
176
1
290
0
176
1
 90
50
176
1
 62
256
176
0
 40
1.0
176
0
 90
2
176
1
  1
strokes_ogs.tif
176
1
290
0
176
1
 40
1.0
176
1
 40
1.0
176
1
  0
VISUALSTYLE
  5
60
102
{ACAD_REACTORS
330
16
102
}
330
16
100
AcDbVisualStyle
  2
EdgeColorOff
 70
22
177
3
291
1
 70
58
 90
2
176
1
 90
2
176
1
 90
0
176
1
 90
2
176
1
 40
0.6
176
1
 40
30.0
176
1
 62
7
420
16777215
176
1
 90
1
176
1
 90
4
176
1
 62
7
176
1
 62
257
176
1
 90
1
176
1
 90
1
176
1
 40
1.0
176
1
 90
8
176
1
 62
7
176
1
 40
1.0
176
1
 90
1
176
1
 90
6
176
1
 90
2
176
1
 62
7
176
1
 90
5
176
1
 90
0
176
1
 90
0
176
1
290
0
176
1
 90
1
176
1
 40
0.0
176
1
 90
0
176
1
290
0
176
1
290
1
176
1
290
1
176
1
290
0
176
1
290
0
176
1
290
0
176
1
290
0
176
1
290
0
176
1
290
0
176
1
 90
50
176
1
 40
0.0
176
1
 40
1.0
176
1
 90
0
176
1
 62
18
420
0
176
1
 90
50
176
1
 90
3
176
1
 62
5
420
255
176
1
290
0
176
1
 90
50
176
1
 90
50
176
1
 90
50
176
1
290
0
176
1
 90
50
176
1
 62
256
176
0
 40
1.0
176
0
 90
2
176
1
  1
strokes_ogs.tif
176
1
290
0
176
1
 40
1.0
176
1
 40
1.0
176
1
  0
VISUALSTYLE
  5
61
102
{ACAD_REACTORS
330
16
102
}
330
16
100
AcDbVisualStyle
  2
Facepattern
 70
15
177
3
291
1
 70
58
 90
2
176
1
 90
2
176
1
 90
0
176
1
 90
2
176
1
 40
0.6
176
1
 40
30.0
176
1
 62
7
420
16777215
176
1
 90
1
176
1
 90
4
176
1
 62
7
176
1
 62
257
176
1
 90
1
176
1
 90
1
176
1
 40
1.0
176
1
 90
8
176
1
 62
7
176
1
 40
1.0
176
1
 90
1
176
1
 90
6
176
1
 90
2
176
1
 62
7
176
1
 90
5
176
1
 90
0
176
1
 90
0
176
1
290
0
176
1
 90
1
176
1
 40
0.0
176
1
 90
0
176
1
290
0
176
1
290
1
176
1
290
1
176
1
290
0
176
1
290
0
176
1
290
0
176
1
290
0
176
1
290
0
176
1
290
0
176
1
 90
50
176
1
 40
0.0
176
1
 40
1.0
176
1
 90
0
176
1
 62
18
420
0
176
1
 90
50
176
1
 90
3
176
1
 62
5
420
255
176
1
290
0
176
1
 90
50
176
1
 90
50
176
1
 90
50
176
1
290
0
176
1
 90
50
176
1
 62
256
176
0
 40
1.0
176
0
 90
2
176
1
  1
strokes_ogs.tif
176
1
290
0
176
1
 40
1.0
176
1
 40
1.0
176
1
  0
VISUALSTYLE
  5
62
102
{ACAD_REACTORS
330
16
102
}
330
16
100
AcDbVisualStyle
  2
Flat
 70
0
177
3
291
1
 70
58
 90
2
176
1
 90
2
176
1
 90
0
176
1
 90
2
176
1
 40
0.6
176
1
 40
30.0
176
1
 62
7
420
16777215
176
1
 90
1
176
1
 90
4
176
1
 62
7
176
1
 62
257
176
1
 90
1
176
1
 90
1
176
1
 40
1.0
176
1
 90
8
176
1
 62
7
176
1
 40
1.0
176
1
 90
1
176
1
 90
6
176
1
 90
2
176
1
 62
7
176
1
 90
5
176
1
 90
0
176
1
 90
0
176
1
290
0
176
1
 90
1
176
1
 40
0.0
176
1
 90
0
176
1
290
0
176
1
290
1
176
1
290
1
176
1
290
0
176
1
290
0
176
1
290
0
176
1
290
0
176
1
290
0
176
1
290
0
176
1
 90
50
176
1
 40
0.0
176
1
 40
1.0
176
1
 90
0
176
1
 62
18
420
0
176
1
 90
50
176
1
 90
3
176
1
 62
5
420
255
176
1
290
0
176
1
 90
50
176
1
 90
50
176
1
 90
50
176
1
290
0
176
1
 90
50
176
1
 62
256
176
0
 40
1.0
176
0
 90
2
176
1
  1
strokes_ogs.tif
176
1
290
0
176
1
 40
1.0
176
1
 40
1.0
176
1
  0
VISUALSTYLE
  5
63
102
{ACAD_REACTORS
330
16
102
}
330
16
100
AcDbVisualStyle
  2
FlatWithEdges
 70
1
177
3
291
1
 70
58
 90
2
176
1
 90
2
176
1
 90
0
176
1
 90
2
176
1
 40
0.6
176
1
 40
30.0
176
1
 62
7
420
16777215
176
1
 90
1
176
1
 90
4
176
1
 62
7
176
1
 62
257
176
1
 90
1
176
1
 90
1
176
1
 40
1.0
176
1
 90
8
176
1
 62
7
176
1
 40
1.0
176
1
 90
1
176
1
 90
6
176
1
 90
2
176
1
 62
7
176
1
 90
5
176
1
 90
0
176
1
 90
0
176
1
290
0
176
1
 90
1
176
1
 40
0.0
176
1
 90
0
176
1
290
0
176
1
290
1
176
1
290
1
176
1
290
0
176
1
290
0
176
1
290
0
176
1
290
0
176
1
290
0
176
1
290
0
176
1
 90
50
176
1
 40
0.0
176
1
 40
1.0
176
1
 90
0
176
1
 62
18
420
0
176
1
 90
50
176
1
 90
3
176
1
 62
5
420
255
176
1
290
0
176
1
 90
50
176
1
 90
50
176
1
 90
50
176
1
290
0
176
1
 90
50
176
1
 62
256
176
0
 40
1.0
176
0
 90
2
176
1
  1
strokes_ogs.tif
176
1
290
0
176
1
 40
1.0
176
1
 40
1.0
176
1
  0
VISUALSTYLE
  5
64
102
{ACAD_REACTORS
330
16
102
}
330
16
100
AcDbVisualStyle
  2
Gouraud
 70
2
177
3
291
1
 70
58
 90
2
176
1
 90
2
176
1
 90
0
176
1
 90
2
176
1
 40
0.6
176
1
 40
30.0
176
1
 62
7
420
16777215
176
1
 90
1
176
1
 90
4
176
1
 62
7
176
1
 62
257
176
1
 90
1
176
1
 90
1
176
1
 40
1.0
176
1
 90
8
176
1
 62
7
176
1
 40
1.0
176
1
 90
1
176
1
 90
6
176
1
 90
2
176
1
 62
7
176
1
 90
5
176
1
 90
0
176
1
 90
0
176
1
290
0
176
1
 90
1
176
1
 40
0.0
176
1
 90
0
176
1
290
0
176
1
290
1
176
1
290
1
176
1
290
0
176
1
290
0
176
1
290
0
176
1
290
0
176
1
290
0
176
1
290
0
176
1
 90
50
176
1
 40
0.0
176
1
 40
1.0
176
1
 90
0
176
1
 62
18
420
0
176
1
 90
50
176
1
 90
3
176
1
 62
5
420
255
176
1
290
0
176
1
 90
50
176
1
 90
50
176
1
 90
50
176
1
290
0
176
1
 90
50
176
1
 62
256
176
0
 40
1.0
176
0
 90
2
176
1
  1
strokes_ogs.tif
176
1
290
0
176
1
 40
1.0
176
1
 40
1.0
176
1
  0
VISUALSTYLE
  5
65
102
{ACAD_REACTORS
330
16
102
}
330
16
100
AcDbVisualStyle
  2
GouraudWithEdges
 70
3
177
3
291
1
 70
58
 90
2
176
1
 90
2
176
1
 90
0
176
1
 90
2
176
1
 40
0.6
176
1
 40
30.0
176
1
 62
7
420
16777215
176
1
 90
1
176
1
 90
4
176
1
 62
7
176
1
 62
257
176
1
 90
1
176
1
 90
1
176
1
 40
1.0
176
1
 90
8
176
1
 62
7
176
1
 40
1.0
176
1
 90
1
176
1
 90
6
176
1
 90
2
176
1
 62
7
176
1
 90
5
176
1
 90
0
176
1
 90
0
176
1
290
0
176
1
 90
1
176
1
 40
0.0
176
1
 90
0
176
1
290
0
176
1
290
1
176
1
290
1
176
1
290
0
176
1
290
0
176
1
290
0
176
1
290
0
176
1
290
0
176
1
290
0
176
1
 90
50
176
1
 40
0.0
176
1
 40
1.0
176
1
 90
0
176
1
 62
18
420
0
176
1
 90
50
176
1
 90
3
176
1
 62
5
420
255
176
1
290
0
176
1
 90
50
176
1
 90
50
176
1
 90
50
176
1
290
0
176
1
 90
50
176
1
 62
256
176
0
 40
1.0
176
0
 90
2
176
1
  1
strokes_ogs.tif
176
1
290
0
176
1
 40
1.0
176
1
 40
1.0
176
1
  0
VISUALSTYLE
  5
66
102
{ACAD_REACTORS
330
16
102
}
330
16
100
AcDbVisualStyle
  2
Hidden
 70
6
177
3
291
0
 70
58
 90
2
176
1
 90
2
176
1
 90
0
176
1
 90
1
176
1
 40
0.6
176
1
 40
30.0
176
1
 62
7
420
16777215
176
1
 90
1
176
1
 90
4
176
1
 62
7
176
1
 62
257
176
1
 90
1
176
1
 90
1
176
1
 40
1.0
176
1
 90
8
176
1
 62
7
176
1
 40
1.0
176
1
 90
1
176
1
 90
6
176
1
 90
2
176
1
 62
7
176
1
 90
5
176
1
 90
0
176
1
 90
0
176
1
290
0
176
1
 90
1
176
1
 40
0.0
176
1
 90
0
176
1
290
0
176
1
290
1
176
1
290
1
176
1
290
0
176
1
290
0
176
1
290
0
176
1
290
0
176
1
290
0
176
1
290
0
176
1
 90
50
176
1
 40
0.0
176
1
 40
1.0
176
1
 90
0
176
1
 62
18
420
0
176
1
 90
50
176
1
 90
3
176
1
 62
5
420
255
176
1
290
0
176
1
 90
50
176
1
 90
50
176
1
 90
50
176
1
290
0
176
1
 90
50
176
1
 62
256
176
0
 40
1.0
176
0
 90
2
176
1
  1
strokes_ogs.tif
176
1
290
0
176
1
 40
1.0
176
1
 40
1.0
176
1
  0
VISUALSTYLE
  5
67
102
{ACAD_REACTORS
330
16
102
}
330
16
100
AcDbVisualStyle
  2
JitterOff
 70
20
177
3
291
1
 70
58
 90
2
176
1
 90
2
176
1
 90
0
176
1
 90
2
176
1
 40
0.6
176
1
 40
30.0
176
1
 62
7
420
16777215
176
1
 90
1
176
1
 90
4
176
1
 62
7
176
1
 62
257
176
1
 90
1
176
1
 90
1
176
1
 40
1.0
176
1
 90
8
176
1
 62
7
176
1
 40
1.0
176
1
 90
1
176
1
 90
6
176
1
 90
2
176
1
 62
7
176
1
 90
5
176
1
 90
0
176
1
 90
0
176
1
290
0
176
1
 90
1
176
1
 40
0.0
176
1
 90
0
176
1
290
0
176
1
290
1
176
1
290
1
176
1
290
0
176
1
290
0
176
1
290
0
176
1
290
0
176
1
290
0
176
1
290
0
176
1
 90
50
176
1
 40
0.0
176
1
 40
1.0
176
1
 90
0
176
1
 62
18
420
0
176
1
 90
50
176
1
 90
3
176
1
 62
5
420
255
176
1
290
0
176
1
 90
50
176
1
 90
50
176
1
 90
50
176
1
290
0
176
1
 90
50
176
1
 62
256
176
0
 40
1.0
176
0
 90
2
176
1
  1
strokes_ogs.tif
176
1
290
0
176
1
 40
1.0
176
1
 40
1.0
176
1
  0
VISUALSTYLE
  5
68
102
{ACAD_REACTORS
330
16
102
}
330
16
100
AcDbVisualStyle
  2
Linepattern
 70
14
177
3
291
1
 70
58
 90
2
176
1
 90
2
176
1
 90
0
176
1
 90
2
176
1
 40
0.6
176
1
 40
30.0
176
1
 62
7
420
16777215
176
1
 90
1
176
1
 90
4
176
1
 62
7
176
1
 62
257
176
1
 90
1
176
1
 90
1
176
1
 40
1.0
176
1
 90
8
176
1
 62
7
176
1
 40
1.0
176
1
 90
1
176
1
 90
6
176
1
 90
2
176
1
 62
7
176
1
 90
5
176
1
 90
0
176
1
 90
0
176
1
290
0
176
1
 90
1
176
1
 40
0.0
176
1
 90
0
176
1
290
0
176
1
290
1
176
1
290
1
176
1
290
0
176
1
290
0
176
1
290
0
176
1
290
0
176
1
290
0
176
1
290
0
176
1
 90
50
176
1
 40
0.0
176
1
 40
1.0
176
1
 90
0
176
1
 62
18
420
0
176
1
 90
50
176
1
 90
3
176
1
 62
5
420
255
176
1
290
0
176
1
 90
50
176
1
 90
50
176
1
 90
50
176
1
290
0
176
1
 90
50
176
1
 62
256
176
0
 40
1.0
176
0
 90
2
176
1
  1
strokes_ogs.tif
176
1
290
0
176
1
 40
1.0
176
1
 40
1.0
176
1
  0
VISUALSTYLE
  5
69
102
{ACAD_REACTORS
330
16
102
}
330
16
100
AcDbVisualStyle
  2
Modeling
 70
10
177
3
291
0
 70
58
 90
2
176
1
 90
2
176
1
 90
0
176
1
 90
2
176
1
 40
0.6
176
1
 40
30.0
176
1
 62
7
420
16777215
176
1
 90
1
176
1
 90
4
176
1
 62
7
176
1
 62
257
176
1
 90
1
176
1
 90
1
176
1
 40
1.0
176
1
 90
8
176
1
 62
7
176
1
 40
1.0
176
1
 90
1
176
1
 90
6
176
1
 90
2
176
1
 62
7
176
1
 90
5
176
1
 90
0
176
1
 90
0
176
1
290
0
176
1
 90
1
176
1
 40
0.0
176
1
 90
0
176
1
290
0
176
1
290
1
176
1
290
1
176
1
290
0
176
1
290
0
176
1
290
0
176
1
290
0
176
1
290
0
176
1
290
0
176
1
 90
50
176
1
 40
0.0
176
1
 40
1.0
176
1
 90
0
176
1
 62
18
420
0
176
1
 90
50
176
1
 90
3
176
1
 62
5
420
255
176
1
290
0
176
1
 90
50
176
1
 90
50
176
1
 90
50
176
1
290
0
176
1
 90
50
176
1
 62
256
176
0
 40
1.0
176
0
 90
2
176
1
  1
strokes_ogs.tif
176
1
290
0
176
1
 40
1.0
176
1
 40
1.0
176
1
  0
VISUALSTYLE
  5
6A
102
{ACAD_REACTORS
330
16
102
}
330
16
100
AcDbVisualStyle
  2
OverhangOff
 70
21
177
3
291
1
 70
58
 90
2
176
1
 90
2
176
1
 90
0
176
1
 90
2
176
1
 40
0.6
176
1
 40
30.0
176
1
 62
7
420
16777215
176
1
 90
1
176
1
 90
4
176
1
 62
7
176
1
 62
257
176
1
 90
1
176
1
 90
1
176
1
 40
1.0
176
1
 90
8
176
1
 62
7
176
1
 40
1.0
176
1
 90
1
176
1
 90
6
176
1
 90
2
176
1
 62
7
176
1
 90
5
176
1
 90
0
176
1
 90
0
176
1
290
0
176
1
 90
1
176
1
 40
0.0
176
1
 90
0
176
1
290
0
176
1
290
1
176
1
290
1
176
1
290
0
176
1
290
0
176
1
290
0
176
1
290
0
176
1
290
0
176
1
290
0
176
1
 90
50
176
1
 40
0.0
176
1
 40
1.0
176
1
 90
0
176
1
 62
18
420
0
176
1
 90
50
176
1
 90
3
176
1
 62
5
420
255
176
1
290
0
176
1
 90
50
176
1
 90
50
176
1
 90
50
176
1
290
0
176
1
 90
50
176
1
 62
256
176
0
 40
1.0
176
0
 90
2
176
1
  1
strokes_ogs.tif
176
1
290
0
176
1
 40
1.0
176
1
 40
1.0
176
1
  0
VISUALSTYLE
  5
6B
102
{ACAD_REACTORS
330
16
102
}
330
16
100
AcDbVisualStyle
  2
Realistic
 70
8
177
3
291
0
 70
58
 90
2
176
1
 90
2
176
1
 90
0
176
1
 90
2
176
1
 40
0.6
176
1
 40
30.0
176
1
 62
7
420
16777215
176
1
 90
1
176
1
 90
4
176
1
 62
7
176
1
 62
257
176
1
 90
1
176
1
 90
1
176
1
 40
1.0
176
1
 90
8
176
1
 62
7
176
1
 40
1.0
176
1
 90
1
176
1
 90
6
176
1
 90
2
176
1
 62
7
176
1
 90
5
176
1
 90
0
176
1
 90
0
176
1
290
0
176
1
 90
1
176
1
 40
0.0
176
1
 90
0
176
1
290
0
176
1
290
1
176
1
290
1
176
1
290
0
176
1
290
0
176
1
290
0
176
1
290
0
176
1
290
0
176
1
290
0
176
1
 90
50
176
1
 40
0.0
176
1
 40
1.0
176
1
 90
0
176
1
 62
18
420
0
176
1
 90
50
176
1
 90
3
176
1
 62
5
420
255
176
1
290
0
176
1
 90
50
176
1
 90
50
176
1
 90
50
176
1
290
0
176
1
 90
50
176
1
 62
256
176
0
 40
1.0
176
0
 90
2
176
1
  1
strokes_ogs.tif
176
1
290
0
176
1
 40
1.0
176
1
 40
1.0
176
1
  0
VISUALSTYLE
  5
6C
102
{ACAD_REACTORS
330
16
102
}
330
16
100
AcDbVisualStyle
  2
Shaded
 70
27
177
3
291
0
 70
58
 90
2
176
1
 90
2
176
1
 90
0
176
1
 90
2
176
1
 40
0.6
176
1
 40
30.0
176
1
 62
7
420
16777215
176
1
 90
1
176
1
 90
4
176
1
 62
7
176
1
 62
257
176
1
 90
1
176
1
 90
1
176
1
 40
1.0
176
1
 90
8
176
1
 62
7
176
1
 40
1.0
176
1
 90
1
176
1
 90
6
176
1
 90
2
176
1
 62
7
176
1
 90
5
176
1
 90
0
176
1
 90
0
176
1
290
0
176
1
 90
1
176
1
 40
0.0
176
1
 90
0
176
1
290
0
176
1
290
1
176
1
290
1
176
1
290
0
176
1
290
0
176
1
290
0
176
1
290
0
176
1
290
0
176
1
290
0
176
1
 90
50
176
1
 40
0.0
176
1
 40
1.0
176
1
 90
0
176
1
 62
18
420
0
176
1
 90
50
176
1
 90
3
176
1
 62
5
420
255
176
1
290
0
176
1
 90
50
176
1
 90
50
176
1
 90
50
176
1
290
0
176
1
 90
50
176
1
 62
256
176
0
 40
1.0
176
0
 90
2
176
1
  1
strokes_ogs.tif
176
1
290
0
176
1
 40
1.0
176
1
 40
1.0
176
1
  0
VISUALSTYLE
  5
6D
102
{ACAD_REACTORS
330
16
102
}
330
16
100
AcDbVisualStyle
  2
Shaded with edges
 70
26
177
3
291
0
 70
58
 90
2
176
1
 90
2
176
1
 90
0
176
1
 90
2
176
1
 40
0.6
176
1
 40
30.0
176
1
 62
7
420
16777215
176
1
 90
1
176
1
 90
4
176
1
 62
7
176
1
 62
257
176
1
 90
1
176
1
 90
1
176
1
 40
1.0
176
1
 90
8
176
1
 62
7
176
1
 40
1.0
176
1
 90
1
176
1
 90
6
176
1
 90
2
176
1
 62
7
176
1
 90
5
176
1
 90
0
176
1
 90
0
176
1
290
0
176
1
 90
1
176
1
 40
0.0
176
1
 90
0
176
1
290
0
176
1
290
1
176
1
290
1
176
1
290
0
176
1
290
0
176
1
290
0
176
1
290
0
176
1
290
0
176
1
290
0
176
1
 90
50
176
1
 40
0.0
176
1
 40
1.0
176
1
 90
0
176
1
 62
18
420
0
176
1
 90
50
176
1
 90
3
176
1
 62
5
420
255
176
1
290
0
176
1
 90
50
176
1
 90
50
176
1
 90
50
176
1
290
0
176
1
 90
50
176
1
 62
256
176
0
 40
1.0
176
0
 90
2
176
1
  1
strokes_ogs.tif
176
1
290
0
176
1
 40
1.0
176
1
 40
1.0
176
1
  0
VISUALSTYLE
  5
6E
102
{ACAD_REACTORS
330
16
102
}
330
16
100
AcDbVisualStyle
  2
Shades of Gray
 70
23
177
3
291
0
 70
58
 90
2
176
1
 90
2
176
1
 90
0
176
1
 90
2
176
1
 40
0.6
176
1
 40
30.0
176
1
 62
7
420
16777215
176
1
 90
1
176
1
 90
4
176
1
 62
7
176
1
 62
257
176
1
 90
1
176
1
 90
1
176
1
 40
1.0
176
1
 90
8
176
1
 62
7
176
1
 40
1.0
176
1
 90
1
176
1
 90
6
176
1
 90
2
176
1
 62
7
176
1
 90
5
176
1
 90
0
176
1
 90
0
176
1
290
0
176
1
 90
1
176
1
 40
0.0
176
1
 90
0
176
1
290
0
176
1
290
1
176
1
290
1
176
1
290
0
176
1
290
0
176
1
290
0
176
1
290
0
176
1
290
0
176
1
290
0
176
1
 90
50
176
1
 40
0.0
176
1
 40
1.0
176
1
 90
0
176
1
 62
18
420
0
176
1
 90
50
176
1
 90
3
176
1
 62
5
420
255
176
1
290
0
176
1
 90
50
176
1
 90
50
176
1
 90
50
176
1
290
0
176
1
 90
50
176
1
 62
256
176
0
 40
1.0
176
0
 90
2
176
1
  1
strokes_ogs.tif
176
1
290
0
176
1
 40
1.0
176
1
 40
1.0
176
1
  0
VISUALSTYLE
  5
6F
102
{ACAD_REACTORS
330
16
102
}
330
16
100
AcDbVisualStyle
  2
Sketchy
 70
24
177
3
291
0
 70
58
 90
2
176
1
 90
2
176
1
 90
0
176
1
 90
1
176
1
 40
0.6
176
1
 40
30.0
176
1
 62
7
420
16777215
176
1
 90
1
176
1
 90
4
176
1
 62
7
176
1
 62
257
176
1
 90
1
176
1
 90
1
176
1
 40
1.0
176
1
 90
8
176
1
 62
7
176
1
 40
1.0
176
1
 90
1
176
1
 90
6
176
1
 90
2
176
1
 62
7
176
1
 90
5
176
1
 90
0
176
1
 90
0
176
1
290
0
176
1
 90
1
176
1
 40
0.0
176
1
 90
0
176
1
290
0
176
1
290
1
176
1
290
1
176
1
290
0
176
1
290
0
176
1
290
0
176
1
290
0
176
1
290
0
176
1
290
0
176
1
 90
50
176
1
 40
0.0
176
1
 40
1.0
176
1
 90
0
176
1
 62
18
420
0
176
1
 90
50
176
1
 90
3
176
1
 62
5
420
255
176
1
290
0
176
1
 90
50
176
1
 90
50
176
1
 90
50
176
1
290
0
176
1
 90
50
176
1
 62
256
176
0
 40
1.0
176
0
 90
2
176
1
  1
strokes_ogs.tif
176
1
290
0
176
1
 40
1.0
176
1
 40
1.0
176
1
  0
VISUALSTYLE
  5
70
102
{ACAD_REACTORS
330
16
102
}
330
16
100
AcDbVisualStyle
  2
Thicken
 70
13
177
3
291
1
 70
58
 90
2
176
1
 90
2
176
1
 90
0
176
1
 90
2
176
1
 40
0.6
176
1
 40
30.0
176
1
 62
7
420
16777215
176
1
 90
1
176
1
 90
4
176
1
 62
7
176
1
 62
257
176
1
 90
1
176
1
 90
1
176
1
 40
1.0
176
1
 90
8
176
1
 62
7
176
1
 40
1.0
176
1
 90
1
176
1
 90
6
176
1
 90
2
176
1
 62
7
176
1
 90
5
176
1
 90
0
176
1
 90
0
176
1
290
0
176
1
 90
1
176
1
 40
0.0
176
1
 90
0
176
1
290
0
176
1
290
1
176
1
290
1
176
1
290
0
176
1
290
0
176
1
290
0
176
1
290
0
176
1
290
0
176
1
290
0
176
1
 90
50
176
1
 40
0.0
176
1
 40
1.0
176
1
 90
0
176
1
 62
18
420
0
176
1
 90
50
176
1
 90
3
176
1
 62
5
420
255
176
1
290
0
176
1
 90
50
176
1
 90
50
176
1
 90
50
176
1
290
0
176
1
 90
50
176
1
 62
256
176
0
 40
1.0
176
0
 90
2
176
1
  1
strokes_ogs.tif
176
1
290
0
176
1
 40
1.0
176
1
 40
1.0
176
1
  0
VISUALSTYLE
  5
71
102
{ACAD_REACTORS
330
16
102
}
330
16
100
AcDbVisualStyle
  2
Wireframe
 70
5
177
3
291
0
 70
58
 90
2
176
1
 90
2
176
1
 90
0
176
1
 90
0
176
1
 40
0.6
176
1
 40
30.0
176
1
 62
7
420
16777215
176
1
 90
1
176
1
 90
4
176
1
 62
7
176
1
 62
257
176
1
 90
1
176
1
 90
1
176
1
 40
1.0
176
1
 90
8
176
1
 62
7
176
1
 40
1.0
176
1
 90
1
176
1
 90
6
176
1
 90
2
176
1
 62
7
176
1
 90
5
176
1
 90
0
176
1
 90
0
176
1
290
0
176
1
 90
1
176
1
 40
0.0
176
1
 90
0
176
1
290
0
176
1
290
1
176
1
290
1
176
1
290
0
176
1
290
0
176
1
290
0
176
1
290
0
176
1
290
0
176
1
290
0
176
1
 90
50
176
1
 40
0.0
176
1
 40
1.0
176
1
 90
0
176
1
 62
18
420
0
176
1
 90
50
176
1
 90
3
176
1
 62
5
420
255
176
1
290
0
176
1
 90
50
176
1
 90
50
176
1
 90
50
176
1
290
0
176
1
 90
50
176
1
 62
256
176
0
 40
1.0
176
0
 90
2
176
1
  1
strokes_ogs.tif
176
1
290
0
176
1
 40
1.0
176
1
 40
1.0
176
1
  0
VISUALSTYLE
  5
72
102
{ACAD_REACTORS
330
16
102
}
330
16
100
AcDbVisualStyle
  2
X-Ray
 70
25
177
3
291
0
 70
58
 90
2
176
1
 90
2
176
1
 90
0
176
1
 90
2
176
1
 40
0.5
176
1
 40
30.0
176
1
 62
7
420
16777215
176
1
 90
1
176
1
 90
4
176
1
 62
7
176
1
 62
257
176
1
 90
1
176
1
 90
1
176
1
 40
1.0
176
1
 90
8
176
1
 62
7
176
1
 40
1.0
176
1
 90
1
176
1
 90
6
176
1
 90
2
176
1
 62
7
176
1
 90
5
176
1
 90
0
176
1
 90
0
176
1
290
0
176
1
 90
1
176
1
 40
0.0
176
1
 90
0
176
1
290
0
176
1
290
1
176
1
290
1
176
1
290
0
176
1
290
0
176
1
290
0
176
1
290
0
176
1
290
0
176
1
290
0
176
1
 90
50
176
1
 40
0.0
176
1
 40
1.0
176
1
 90
0
176
1
 62
18
420
0
176
1
 90
50
176
1
 90
3
176
1
 62
5
420
255
176
1
290
0
176
1
 90
50
176
1
 90
50
176
1
 90
50
176
1
290
0
176
1
 90
50
176
1
 62
256
176
0
 40
1.0
176
0
 90
2
176
1
  1
strokes_ogs.tif
176
1
290
0
176
1
 40
1.0
176
1
 40
1.0
176
1
  0
DICTIONARYVAR
  5
144
330
2D
100
DictionaryVariables
280
0
  1
1.4.4 @ 2026-10-03T19:04:12.582405+00:00
  0
ENDSEC
  0
EOF
